<svg width="156" height="72" viewBox="0 0 156 72" fill="none" xmlns="http://www.w3.org/2000/svg">
<path d="M60.981 5.38287C61.0439 5.38897 61.1069 5.39506 61.1699 5.40115C61.3009 5.41387 61.432 5.42673 61.563 5.43969C61.6952 5.45274 61.8274 5.46553 61.9596 5.47808C62.6782 5.54632 63.3896 5.61998 64.0983 5.76094C64.2361 5.78787 64.3744 5.81205 64.5126 5.83641C65.2951 5.97482 66.0634 6.17269 66.8274 6.38906C66.8704 6.40122 66.8704 6.40122 66.9142 6.41362C67.2325 6.50396 67.5495 6.59816 67.8652 6.69722C67.8928 6.70584 67.9204 6.71447 67.9489 6.72335C68.1543 6.78847 68.3532 6.8644 68.5527 6.94594C68.6794 6.99649 68.8071 7.04189 68.9359 7.08676C69.2902 7.21119 69.6373 7.35365 69.985 7.49534C70.0877 7.53717 70.1904 7.57879 70.2932 7.62039C70.3556 7.64579 70.4181 7.6712 70.4805 7.69663C70.5086 7.708 70.5367 7.71937 70.5656 7.73108C70.7112 7.79071 70.8535 7.85409 70.9942 7.92464C71.0834 7.96926 71.1729 8.01308 71.2625 8.05679C72.5623 8.69073 72.5623 8.69073 73.1789 9.05706C73.2268 9.0852 73.2747 9.11335 73.3226 9.14149C73.4722 9.22967 73.621 9.31934 73.7694 9.40956C73.8183 9.43884 73.8183 9.43884 73.8682 9.46872C74.1431 9.64392 74.3469 9.91864 74.4215 10.2387C74.4908 10.7081 74.4348 11.0965 74.1691 11.5056C74.1488 11.5288 74.1284 11.552 74.1074 11.5759C74.0834 11.5735 74.0593 11.5712 74.0346 11.5687C74.0257 11.5891 74.0169 11.6095 74.0078 11.6304C73.9197 11.7423 73.8072 11.7779 73.6779 11.8277C73.6441 11.8411 73.6104 11.8544 73.5756 11.8682C73.3788 11.9448 73.1809 12.0169 72.9811 12.0853C72.7706 12.1575 72.563 12.2357 72.3555 12.3161C72.1855 12.3817 72.0145 12.4436 71.8425 12.5038C71.5104 12.6202 71.1884 12.7496 70.8681 12.8953C70.7548 12.9464 70.6409 12.9964 70.5271 13.0465C69.7308 13.3974 68.9476 13.7727 68.1841 14.1907C68.157 14.2055 68.1299 14.2203 68.102 14.2355C67.7822 14.407 67.7822 14.407 67.4701 14.5916C67.4051 14.6287 67.4051 14.6287 67.3322 14.6215C67.3299 14.6455 67.3275 14.6696 67.325 14.6943C67.2534 14.7388 67.2534 14.7388 67.1596 14.7861C67.0674 14.8329 66.9779 14.8791 66.8904 14.9343C66.8191 14.9754 66.8191 14.9754 66.7462 14.9682C66.7438 14.9922 66.7415 15.0163 66.739 15.041C66.6706 15.0874 66.6 15.1306 66.5284 15.1719C66.4894 15.1947 66.4505 15.2175 66.4103 15.241C66.3095 15.2928 66.3095 15.2928 66.2366 15.2857C66.2211 15.3205 66.2055 15.3554 66.1894 15.3913C66.1109 15.445 66.0332 15.4943 65.9515 15.5425C65.9047 15.5708 65.8581 15.5992 65.8114 15.6277C65.7888 15.6415 65.7661 15.6553 65.7427 15.6696C65.6114 15.7514 65.4876 15.8432 65.3632 15.935C65.2836 15.9921 65.2039 16.049 65.124 16.1059C65.0718 16.1432 65.0197 16.1807 64.9678 16.2186C64.9308 16.2452 64.9308 16.2452 64.8931 16.2724C64.8711 16.2884 64.8491 16.3044 64.8265 16.3208C64.77 16.3545 64.77 16.3545 64.6971 16.3473C64.6816 16.3822 64.666 16.417 64.6499 16.453C64.6259 16.4506 64.6018 16.4482 64.5771 16.4458C64.5655 16.4666 64.5538 16.4874 64.5419 16.5088C64.4857 16.5902 64.4365 16.6287 64.3545 16.683C64.1536 16.8216 63.9659 16.9754 63.7777 17.1304C63.7177 17.1798 63.6576 17.2289 63.5975 17.278C63.5591 17.3095 63.5207 17.341 63.4823 17.3726C63.4306 17.415 63.4306 17.415 63.3779 17.4583C63.2879 17.5324 63.2879 17.5324 63.2089 17.6347C63.1849 17.6323 63.1608 17.6299 63.1361 17.6275C63.1073 17.6732 63.0785 17.7189 63.0488 17.766C63.0248 17.7636 63.0007 17.7612 62.976 17.7588C62.9652 17.7783 62.9544 17.7979 62.9432 17.818C62.8775 17.9136 62.8015 17.9806 62.7143 18.057C62.6029 18.1562 62.4986 18.2543 62.403 18.3688C62.3748 18.4009 62.3466 18.433 62.3175 18.4661C62.2935 18.4637 62.2695 18.4613 62.2447 18.4589C62.2295 18.4864 62.2295 18.4864 62.214 18.5145C62.1376 18.6264 62.0442 18.7195 61.9496 18.8159C61.9091 18.8576 61.8686 18.8994 61.8282 18.9412C61.8079 18.9622 61.7875 18.9833 61.7666 19.0049C61.6749 19.1005 61.5849 19.1975 61.4954 19.2951C61.4655 19.3276 61.4357 19.3601 61.4049 19.3936C61.3356 19.4678 61.3356 19.4678 61.2917 19.5416C61.2677 19.5393 61.2436 19.5369 61.2188 19.5344C61.2003 19.5724 61.2003 19.5724 61.1814 19.6112C61.128 19.7093 61.0726 19.7952 61.0007 19.8807C60.9767 19.8783 60.9526 19.8759 60.9279 19.8735C60.9107 19.9099 60.9107 19.9099 60.8933 19.9471C60.8279 20.0649 60.7482 20.1662 60.6634 20.2703C60.6292 20.3128 60.5952 20.3553 60.5611 20.3978C60.544 20.4192 60.5268 20.4406 60.5092 20.4626C60.0991 20.9483 60.0991 20.9483 59.7752 21.4882C59.7512 21.4858 59.7271 21.4834 59.7024 21.481C59.6974 21.5043 59.6924 21.5277 59.6873 21.5517C59.6322 21.7026 59.5438 21.8233 59.4532 21.9551C59.1314 22.4338 58.8468 22.9299 58.5989 23.4506C58.5597 23.531 58.5184 23.6103 58.4747 23.6883C58.3889 23.8465 58.316 24.0087 58.2433 24.1733C58.2214 24.2229 58.2214 24.2229 58.1989 24.2735C58.17 24.3389 58.1412 24.4044 58.1125 24.4699C58.0821 24.539 58.0515 24.608 58.0209 24.677C57.7603 25.2776 57.5559 25.9033 57.3799 26.5334C57.3579 26.6114 57.3349 26.6891 57.3116 26.7668C56.7068 28.8278 56.6215 31.1595 57.1059 33.2504C57.1137 33.2839 57.1214 33.3175 57.1294 33.3521C57.1547 33.461 57.1804 33.5698 57.2062 33.6786C57.2188 33.733 57.2188 33.733 57.2317 33.7886C57.2847 34.0113 57.3488 34.2264 57.4248 34.4424C57.464 34.5545 57.4979 34.668 57.5319 34.7818C57.7561 35.4928 58.0658 36.1968 58.4439 36.8394C58.5692 37.0599 58.5692 37.0599 58.5608 37.1451C58.5849 37.1475 58.6089 37.1499 58.6337 37.1523C58.6518 37.2148 58.6699 37.2772 58.6886 37.3416C58.7126 37.344 58.7367 37.3463 58.7615 37.3488C58.8032 37.4066 58.8032 37.4066 58.845 37.4811C58.866 37.5178 58.866 37.5178 58.8874 37.5552C58.9185 37.6217 58.9185 37.6217 58.9113 37.6946C58.9353 37.6969 58.9594 37.6993 58.9841 37.7018C59.1466 37.9192 59.1466 37.9192 59.1375 38.0111C59.1616 38.0135 59.1856 38.0158 59.2104 38.0183C59.3729 38.2357 59.3729 38.2357 59.3638 38.3276C59.3878 38.33 59.4119 38.3324 59.4367 38.3348C59.4754 38.3916 59.514 38.4485 59.5514 38.5062C59.6222 38.6068 59.7106 38.6886 59.7979 38.775C59.8526 38.8417 59.9073 38.9084 59.9621 38.9751C60.0244 39.0392 60.0872 39.1027 60.1509 39.1654C60.1656 39.183 60.1804 39.2007 60.1955 39.2188C60.1931 39.2428 60.1908 39.2669 60.1883 39.2916C60.2067 39.3018 60.2251 39.3119 60.2441 39.3223C60.3555 39.3984 60.4475 39.492 60.5432 39.5864C62.2701 41.2615 64.4648 42.261 66.8526 42.4939C66.8875 42.4973 66.9224 42.5007 66.9583 42.5043C67.4876 42.5556 68.0132 42.5986 68.5455 42.5805C68.5798 42.5794 68.6142 42.5782 68.6496 42.577C70.0761 42.5202 71.4775 42.2325 72.8419 41.8245C72.9211 41.801 73.0005 41.7784 73.08 41.7561C73.389 41.6692 73.691 41.5692 73.9926 41.4601C74.0666 41.4337 74.1409 41.4085 74.2154 41.3836C74.6532 41.2353 75.0719 41.0498 75.4931 40.8599C75.6007 40.8122 75.7088 40.7661 75.8173 40.7204C75.993 40.6464 76.1666 40.5689 76.3394 40.4882C76.3668 40.4755 76.3943 40.4628 76.4225 40.4497C76.5638 40.3841 76.7046 40.3176 76.845 40.2501C76.8716 40.2374 76.8981 40.2247 76.9254 40.2116C76.976 40.1873 77.0264 40.1629 77.0767 40.1383C77.2476 40.0561 77.2476 40.0561 77.3285 40.0641C77.3309 40.0401 77.3333 40.016 77.3357 39.9913C77.4004 39.9551 77.4004 39.9551 77.4927 39.9148C77.6731 39.8329 77.8479 39.7436 78.0224 39.6499C78.0467 39.6369 78.071 39.6239 78.096 39.6104C78.1196 39.5978 78.1432 39.5851 78.1674 39.572C78.2017 39.5536 78.2017 39.5536 78.2367 39.5349C78.2816 39.5106 78.3263 39.486 78.3709 39.4611C78.5293 39.3736 78.5293 39.3736 78.6099 39.3815C78.6123 39.3575 78.6146 39.3335 78.6171 39.3087C78.6903 39.2666 78.6903 39.2666 78.7939 39.2181C78.9798 39.1272 79.1582 39.0284 79.3358 38.9222C79.3606 38.9075 79.3853 38.8927 79.4109 38.8775C79.506 38.8206 79.601 38.7635 79.6959 38.7063C79.7558 38.6703 79.8158 38.6344 79.8759 38.5986C79.9264 38.5681 79.9264 38.5681 79.9781 38.537C80.0585 38.4948 80.0585 38.4948 80.1314 38.502C80.1338 38.478 80.1361 38.4539 80.1386 38.4292C80.1934 38.3983 80.2484 38.3678 80.3046 38.3396C80.4549 38.2621 80.5961 38.1672 80.7395 38.0776C80.8411 38.0204 80.8411 38.0204 80.914 38.0276C80.9163 38.0036 80.9187 37.9795 80.9212 37.9548C80.9896 37.9084 81.0602 37.8652 81.1318 37.8239C81.1708 37.8011 81.2097 37.7783 81.2499 37.7548C81.3507 37.703 81.3507 37.703 81.4235 37.7101C81.4259 37.6861 81.4283 37.6621 81.4307 37.6373C81.5061 37.5874 81.5061 37.5874 81.6116 37.5287C81.7899 37.427 81.9645 37.3214 82.1373 37.2106C82.1605 37.1958 82.1836 37.181 82.2075 37.1657C82.3827 37.0534 82.5564 36.9388 82.7292 36.8227C82.8029 36.7798 82.8029 36.7798 82.8758 36.787C82.8782 36.763 82.8805 36.7389 82.883 36.7142C82.9408 36.6725 82.9408 36.6725 83.0154 36.6307C83.052 36.6097 83.052 36.6097 83.0894 36.5883C83.156 36.5572 83.156 36.5572 83.2289 36.5644C83.2312 36.5404 83.2336 36.5163 83.236 36.4916C83.258 36.4846 83.2799 36.4777 83.3025 36.4706C83.3909 36.4371 83.3909 36.4371 83.4596 36.3744C83.5635 36.2901 83.6723 36.2223 83.7868 36.1529C83.8276 36.128 83.8684 36.103 83.9105 36.0773C84.0186 36.0172 84.0186 36.0172 84.1315 35.9916C84.1339 35.9675 84.1363 35.9435 84.1387 35.9187C84.1966 35.877 84.1966 35.877 84.2711 35.8352C84.3077 35.8143 84.3077 35.8143 84.3451 35.7928C84.4117 35.7618 84.4117 35.7618 84.4846 35.769C84.4869 35.7449 84.4893 35.7209 84.4918 35.6961C84.5542 35.678 84.6167 35.6599 84.6811 35.6413C84.6835 35.6172 84.6858 35.5932 84.6883 35.5684C84.7663 35.5195 84.8441 35.4748 84.9249 35.4309C85.1317 35.3156 85.3318 35.1938 85.5291 35.063C85.7393 34.9243 85.9524 34.7941 86.1717 34.6704C86.3675 34.56 86.5584 34.4427 86.7488 34.3235C86.8395 34.273 86.8395 34.273 86.9123 34.2801C86.9147 34.2561 86.9171 34.2321 86.9195 34.2073C86.994 34.1904 87.0685 34.1735 87.1453 34.156C87.1477 34.132 87.15 34.108 87.1525 34.0832C87.2018 34.0759 87.251 34.0687 87.3018 34.0612C87.3042 34.0371 87.3066 34.0131 87.309 33.9883C87.3629 33.9537 87.3629 33.9537 87.4428 33.9142C87.6578 33.8042 87.8666 33.6845 88.0759 33.564C88.5913 33.269 88.5913 33.269 88.7033 33.2801C88.7056 33.2561 88.708 33.232 88.7104 33.2073C88.7908 33.1594 88.7908 33.1594 88.8997 33.1064C88.9383 33.0876 88.9768 33.0688 89.0165 33.0494C89.056 33.0304 89.0956 33.0114 89.1364 32.9919C89.1732 32.9737 89.21 32.9556 89.248 32.9369C89.5125 32.8083 89.5125 32.8083 89.5951 32.8165C89.5975 32.7925 89.5999 32.7684 89.6023 32.7437C89.6933 32.6962 89.7836 32.6536 89.8774 32.6122C89.9377 32.585 89.998 32.5578 90.0583 32.5305C90.0907 32.516 90.123 32.5015 90.1563 32.4865C90.2954 32.4234 90.4337 32.3585 90.572 32.2936C91.1527 32.0213 91.7366 31.7641 92.3376 31.5398C92.4073 31.5137 92.4768 31.487 92.5463 31.4601C94.003 30.8965 95.508 30.4703 97.0574 30.261C97.1542 30.2476 97.2507 30.2321 97.3472 30.2167C97.9292 30.1329 98.5119 30.0814 99.0991 30.054C99.1471 30.0517 99.1951 30.0493 99.2445 30.0468C100.242 30.0024 101.227 30.046 102.219 30.1479C102.307 30.157 102.395 30.1658 102.483 30.1745C103.66 30.2927 104.8 30.4933 105.945 30.7895C105.983 30.7994 106.021 30.8093 106.061 30.8194C106.865 31.0292 107.659 31.2896 108.43 31.5994C108.524 31.6364 108.618 31.6721 108.712 31.7076C108.747 31.7207 108.782 31.7339 108.818 31.7475C108.886 31.7729 108.953 31.7982 109.021 31.8235C109.184 31.885 109.341 31.951 109.496 32.0297C109.62 32.0911 109.748 32.1459 109.875 32.2018C110.203 32.346 110.523 32.4945 110.836 32.6698C110.904 32.706 110.972 32.7418 111.041 32.7776C111.578 33.0596 112.101 33.3635 112.611 33.6909C112.669 33.7265 112.727 33.7621 112.785 33.7976C112.947 33.8997 113.103 34.0104 113.259 34.122C113.382 34.2106 113.507 34.2974 113.633 34.3824C113.96 34.6043 114.276 34.8392 114.584 35.0864C114.67 35.1554 114.757 35.2233 114.845 35.2906C114.867 35.3077 114.889 35.3249 114.912 35.3426C114.954 35.3757 114.997 35.4087 115.041 35.4415C115.09 35.4802 115.138 35.5215 115.185 35.5631C115.183 35.5872 115.181 35.6112 115.178 35.636C115.225 35.6527 115.272 35.6695 115.32 35.6868C115.318 35.7108 115.316 35.7348 115.313 35.7596C115.339 35.772 115.364 35.7843 115.39 35.7971C115.488 35.8504 115.574 35.9058 115.66 35.9777C115.657 36.0017 115.655 36.0257 115.652 36.0505C115.676 36.0602 115.699 36.0698 115.723 36.0798C115.868 36.1655 115.975 36.2796 116.092 36.3996C116.137 36.4462 116.183 36.4927 116.229 36.5391C116.251 36.5616 116.274 36.5841 116.297 36.6072C116.362 36.6708 116.43 36.7298 116.5 36.7885C116.55 36.8336 116.55 36.8336 116.601 36.8796C116.598 36.9037 116.596 36.9277 116.593 36.9525C116.613 36.9643 116.634 36.9762 116.654 36.9884C116.734 37.041 116.801 37.0944 116.867 37.1633C116.865 37.1874 116.862 37.2114 116.86 37.2362C116.88 37.248 116.9 37.2599 116.921 37.2721C117 37.3247 117.067 37.3781 117.133 37.4471C117.131 37.4711 117.128 37.4951 117.126 37.5199C117.146 37.5316 117.166 37.5432 117.187 37.5552C117.36 37.6712 117.502 37.8402 117.615 38.0141C117.689 38.1309 117.689 38.1309 117.792 38.2292C117.896 38.3348 117.971 38.4441 118.053 38.5675C118.106 38.635 118.161 38.7016 118.217 38.7676C118.52 39.129 118.52 39.129 118.64 39.3243C118.638 39.3483 118.635 39.3723 118.633 39.3971C118.668 39.4127 118.703 39.4283 118.739 39.4443C118.868 39.621 118.868 39.621 118.859 39.7136C118.883 39.716 118.907 39.7184 118.932 39.7208C118.991 39.8018 119.045 39.8824 119.099 39.9671C119.122 40.0042 119.122 40.0042 119.146 40.0421C119.398 40.4486 119.573 40.8179 119.523 41.3031C119.521 41.333 119.518 41.363 119.516 41.3938C119.483 41.7273 119.331 41.9575 119.082 42.1835C118.707 42.4614 118.368 42.5186 117.903 42.4618C117.666 42.4175 117.434 42.3333 117.256 42.1665C117.258 42.1424 117.261 42.1184 117.263 42.0936C117.228 42.0781 117.193 42.0625 117.157 42.0464C117.102 41.9663 117.052 41.887 117.002 41.8035C116.975 41.759 116.948 41.7144 116.921 41.6699C116.901 41.6369 116.901 41.6369 116.881 41.6032C116.839 41.536 116.795 41.4714 116.749 41.4066C116.679 41.3005 116.679 41.3005 116.686 41.2276C116.652 41.2121 116.617 41.1965 116.581 41.1804C116.451 41.0037 116.451 41.0037 116.46 40.9111C116.425 40.8955 116.39 40.8799 116.354 40.8639C116.311 40.811 116.311 40.811 116.263 40.74C115.852 40.1486 115.399 39.5787 114.874 39.0841C114.789 39.0014 114.717 38.9123 114.643 38.8194C114.61 38.7918 114.576 38.7642 114.541 38.7358C114.544 38.7118 114.546 38.6877 114.548 38.663C114.524 38.653 114.5 38.643 114.476 38.6328C114.359 38.5636 114.282 38.4825 114.192 38.3828C114.141 38.3252 114.141 38.3252 114.071 38.2848C114.073 38.2608 114.075 38.2367 114.078 38.212C114.053 38.2009 114.029 38.1899 114.003 38.1785C113.885 38.1109 113.795 38.0255 113.699 37.9309C113.494 37.7342 113.28 37.5519 113.057 37.3757C113.033 37.3567 113.009 37.3378 112.985 37.3182C112.618 37.027 112.244 36.7488 111.857 36.485C111.86 36.4609 111.862 36.4369 111.864 36.4121C111.84 36.4068 111.816 36.4015 111.791 36.396C111.655 36.3464 111.548 36.2661 111.432 36.181C110.968 35.8491 110.47 35.58 109.969 35.3081C109.89 35.2648 109.81 35.2211 109.731 35.1774C109.323 34.9546 108.902 34.76 108.478 34.57C108.435 34.5508 108.435 34.5508 108.391 34.5312C107.071 33.9434 105.694 33.5213 104.285 33.2115C104.249 33.2035 104.212 33.1955 104.175 33.1873C103.688 33.0832 103.199 33.0135 102.704 32.9642C102.652 32.959 102.601 32.9538 102.549 32.9486C102.442 32.9378 102.335 32.9271 102.227 32.9165C102.12 32.9059 102.012 32.895 101.904 32.8839C101.048 32.7954 100.188 32.7197 99.3265 32.7818C99.2872 32.7843 99.2478 32.7868 99.2073 32.7894C99.1295 32.7943 99.0516 32.7995 98.9738 32.8049C98.8741 32.8116 98.7744 32.8177 98.6746 32.8235C98.3527 32.8425 98.0342 32.8727 97.715 32.9192C97.6648 32.9262 97.6145 32.9332 97.5643 32.9401C97.3341 32.9727 97.1076 33.0076 96.8812 33.0606C96.7796 33.0842 96.6778 33.1068 96.5759 33.1292C95.8667 33.2856 95.1612 33.4459 94.4753 33.6884C94.3813 33.7212 94.2871 33.7526 94.1924 33.7834C93.7437 33.9302 93.3068 34.0966 92.8719 34.28C92.8308 34.2972 92.7897 34.3144 92.7473 34.3322C92.68 34.3606 92.6128 34.3891 92.5456 34.4179C92.4028 34.479 92.2594 34.5389 92.1161 34.599C92.0214 34.6391 92.0214 34.6391 91.9107 34.7C91.8747 34.6964 91.8386 34.6929 91.8015 34.6892C91.7991 34.7132 91.7967 34.7373 91.7943 34.762C91.7379 34.795 91.7379 34.795 91.6593 34.8289C91.6155 34.8482 91.6155 34.8482 91.5708 34.8678C91.5388 34.8816 91.5068 34.8955 91.4739 34.9097C90.884 35.1709 90.3114 35.4654 89.7447 35.7733C89.7203 35.7866 89.6958 35.7998 89.6706 35.8135C89.2488 36.0424 88.8336 36.2821 88.4197 36.5252C88.3799 36.5485 88.3401 36.5719 88.2991 36.596C88.2314 36.6357 88.1638 36.6754 88.0962 36.7152C87.9445 36.8037 87.792 36.8909 87.6395 36.978C87.4867 37.0656 87.3361 37.156 87.1876 37.2508C87.1312 37.2806 87.1312 37.2806 87.0583 37.2734C87.0559 37.2974 87.0536 37.3215 87.0511 37.3462C86.9933 37.3879 86.9933 37.3879 86.9187 37.4297C86.8821 37.4507 86.8821 37.4507 86.8447 37.4721C86.7781 37.5032 86.7781 37.5032 86.7053 37.496C86.7029 37.52 86.7005 37.5441 86.6981 37.5688C86.6296 37.6152 86.559 37.6584 86.4874 37.6997C86.4485 37.7225 86.4095 37.7453 86.3694 37.7688C86.2686 37.8206 86.2686 37.8206 86.1957 37.8134C86.1933 37.8375 86.1909 37.8615 86.1885 37.8863C86.126 37.9044 86.0635 37.9225 85.9992 37.9411C85.9968 37.9652 85.9944 37.9892 85.992 38.014C85.9148 38.0621 85.8378 38.1062 85.7579 38.1495C85.5025 38.2911 85.2599 38.4475 85.019 38.6124C84.9936 38.6296 84.9681 38.6468 84.942 38.6645C84.9194 38.68 84.8969 38.6955 84.8737 38.7114C84.8163 38.7438 84.8163 38.7438 84.7434 38.7366C84.7411 38.7606 84.7387 38.7847 84.7363 38.8094C84.6784 38.8511 84.6784 38.8511 84.6039 38.8929C84.5672 38.9139 84.5672 38.9139 84.5298 38.9353C84.4633 38.9664 84.4633 38.9664 84.3904 38.9592C84.388 38.9832 84.3856 39.0072 84.3832 39.032C84.3503 39.0424 84.3503 39.0424 84.3167 39.053C84.2283 39.0865 84.2283 39.0865 84.1597 39.1491C84.0557 39.2335 83.9469 39.3013 83.8324 39.3707C83.7916 39.3956 83.7508 39.4206 83.7087 39.4462C83.6006 39.5064 83.6006 39.5064 83.4877 39.532C83.4854 39.5561 83.483 39.5801 83.4805 39.6049C83.4129 39.6506 83.3431 39.693 83.2724 39.7337C83.2339 39.7561 83.1954 39.7786 83.1558 39.8017C83.051 39.8567 83.051 39.8567 82.9381 39.8823C82.9358 39.9064 82.9334 39.9304 82.9309 39.9552C82.8543 39.9983 82.7764 40.0394 82.698 40.0793C82.6225 40.1248 82.5474 40.171 82.4728 40.2179C82.4513 40.2314 82.4298 40.2448 82.4077 40.2586C82.2773 40.3404 82.1473 40.4228 82.0174 40.5054C81.6975 40.7086 81.3763 40.9072 81.0462 41.0935C80.9791 41.1315 80.9127 41.1707 80.8477 41.2121C80.7798 41.2506 80.7798 41.2506 80.7069 41.2434C80.7045 41.2675 80.7022 41.2915 80.6997 41.3163C80.6339 41.3572 80.6339 41.3572 80.5491 41.3979C80.5074 41.4184 80.5074 41.4184 80.4648 41.4393C80.3903 41.4696 80.3903 41.4696 80.3174 41.4624C80.315 41.4865 80.3127 41.5105 80.3102 41.5353C80.2536 41.5722 80.2536 41.5722 80.1715 41.6135C80.0504 41.6754 79.9299 41.7378 79.8105 41.8028C79.7844 41.817 79.7583 41.8311 79.7315 41.8457C79.679 41.8742 79.6265 41.9027 79.5742 41.9314C79.3865 42.0325 79.3865 42.0325 79.3055 42.0245C79.3031 42.0485 79.3007 42.0726 79.2983 42.0973C79.2111 42.1434 79.1248 42.1851 79.035 42.2254C78.9818 42.2498 78.9285 42.2744 78.8753 42.2989C78.8488 42.3111 78.8224 42.3233 78.7951 42.3358C78.6912 42.3844 78.5892 42.4361 78.4871 42.4885C78.3581 42.5544 78.2287 42.6164 78.0959 42.6742C78.002 42.7172 77.9104 42.764 77.8184 42.8109C77.0439 43.205 76.2303 43.5347 75.4093 43.8188C75.2551 43.8722 75.1028 43.9288 74.9509 43.9885C74.683 44.0936 74.4151 44.1819 74.1379 44.2591C74.0153 44.2932 73.8938 44.3298 73.7722 44.3675C73.5354 44.4402 73.297 44.5061 73.0578 44.5705C73.0088 44.5843 72.9598 44.5981 72.9108 44.6119C72.5146 44.7213 72.1146 44.8061 71.7116 44.8858C71.6726 44.8936 71.6726 44.8936 71.6328 44.9015C71.0693 45.0129 70.5054 45.1039 69.9343 45.1655C69.9073 45.1684 69.8804 45.1714 69.8527 45.1744C69.046 45.2618 69.046 45.2618 68.6474 45.2752C68.6123 45.2765 68.5773 45.2778 68.5412 45.2791C66.1529 45.356 63.6496 44.9165 61.5529 43.7291C61.5008 43.7004 61.4488 43.6716 61.3967 43.6429C60.6342 43.2177 59.9396 42.7058 59.2697 42.1478C59.2307 42.1159 59.1913 42.0845 59.1515 42.0536C59.1023 42.0151 59.0549 41.9744 59.0079 41.9333C59.0103 41.9093 59.0126 41.8852 59.0151 41.8605C58.9682 41.8437 58.9213 41.8269 58.8729 41.8097C58.8753 41.7856 58.8777 41.7616 58.8801 41.7368C58.8224 41.7069 58.7647 41.6769 58.7052 41.646C58.7075 41.622 58.7099 41.5979 58.7124 41.5732C58.6932 41.5624 58.6741 41.5516 58.6544 41.5406C58.5552 41.4733 58.4775 41.3948 58.3935 41.3095C58.3613 41.2769 58.3291 41.2442 58.2959 41.2106C58.2661 41.1802 58.2362 41.1499 58.2054 41.1186C58.1713 41.0855 58.1713 41.0855 58.1366 41.0517C58.0912 41.0076 58.0477 40.9615 58.0048 40.9149C58.0072 40.8909 58.0095 40.8668 58.012 40.8421C57.9925 40.8316 57.9731 40.8211 57.953 40.8103C57.8528 40.7405 57.7864 40.6594 57.7088 40.565C57.6781 40.5277 57.6474 40.4904 57.6158 40.452C57.6 40.4326 57.5842 40.4132 57.568 40.3932C57.5195 40.3337 57.4706 40.2745 57.4216 40.2153C57.3758 40.1594 57.3758 40.1594 57.3291 40.1024C57.3011 40.0681 57.273 40.0338 57.2442 39.9985C57.1839 39.9145 57.1839 39.9145 57.1911 39.8416C57.1562 39.8261 57.1213 39.8105 57.0854 39.7944C56.9228 39.5774 56.9228 39.5774 56.932 39.4851C56.9079 39.4827 56.8839 39.4803 56.8591 39.4779C56.7958 39.3938 56.7958 39.3938 56.7263 39.2855C56.7032 39.2499 56.68 39.2144 56.6562 39.1777C56.6036 39.0849 56.6036 39.0849 56.6108 39.0121C56.5867 39.0097 56.5627 39.0073 56.5379 39.0049C56.5198 38.9424 56.5017 38.8799 56.483 38.8156C56.459 38.8132 56.4349 38.8108 56.4101 38.8084C56.3795 38.7545 56.3492 38.7004 56.3215 38.6449C56.2837 38.571 56.2419 38.5003 56.1993 38.429C56.129 38.3025 56.129 38.3025 56.1362 38.2297C56.1121 38.2273 56.0881 38.225 56.0633 38.2225C56.0146 38.1361 55.9708 38.0504 55.9282 37.9609C55.9149 37.9336 55.9017 37.9063 55.888 37.8782C55.8438 37.7869 55.8001 37.6954 55.7565 37.6038C55.741 37.5712 55.7254 37.5386 55.7094 37.505C55.6174 37.3119 55.5258 37.1186 55.435 36.9248C55.4055 36.8623 55.3754 36.8 55.3448 36.738C55.2316 36.5064 55.1436 36.2725 55.0637 36.0276C55.0404 35.9571 55.017 35.8866 54.9936 35.8161C54.9821 35.7814 54.9705 35.7467 54.9586 35.7109C54.9252 35.6146 54.8886 35.5202 54.8508 35.4255C54.7579 35.1859 54.6934 34.9387 54.6278 34.6905C54.6146 34.6412 54.6014 34.5918 54.5883 34.5424C54.1079 32.734 53.98 30.9228 54.1667 29.0641C54.179 28.9411 54.1911 28.818 54.203 28.695C54.263 28.0785 54.3339 27.4739 54.4732 26.8696C54.4857 26.815 54.4857 26.815 54.4984 26.7593C54.6926 25.9247 54.919 25.0952 55.2395 24.2997C55.2806 24.196 55.3202 24.0917 55.3596 23.9873C55.5401 23.5145 55.7379 23.0544 55.957 22.5984C55.9687 22.574 55.9804 22.5496 55.9924 22.5245C56.1172 22.2648 56.2472 22.0102 56.3943 21.7623C56.4452 21.6758 56.4933 21.5883 56.5407 21.4999C56.7368 21.1342 56.9464 20.7843 57.1785 20.4404C57.2742 20.2987 57.3645 20.1542 57.4542 20.0087C57.5897 19.7908 57.7342 19.5798 57.8828 19.3706C57.9032 19.3416 57.9236 19.3126 57.9446 19.2826C57.9637 19.256 57.9829 19.2294 58.0026 19.202C58.0196 19.1782 58.0367 19.1543 58.0542 19.1298C58.0694 19.1132 58.0845 19.0966 58.1 19.0795C58.1241 19.0819 58.1481 19.0842 58.1729 19.0867C58.1776 19.0679 58.1824 19.0491 58.1873 19.0298C58.2383 18.9105 58.3184 18.8178 58.4001 18.7184C58.5418 18.5434 58.6775 18.3662 58.807 18.1819C58.8233 18.1629 58.8396 18.144 58.8565 18.1244C58.8805 18.1268 58.9046 18.1292 58.9293 18.1316C58.9406 18.1072 58.9518 18.0828 58.9634 18.0577C59.0301 17.939 59.1124 17.8413 59.2025 17.7403C59.2205 17.7198 59.2386 17.6994 59.2571 17.6784C59.472 17.4376 59.6988 17.2087 59.9259 16.9796C60.1512 16.7526 60.1512 16.7526 60.365 16.515C60.4575 16.4108 60.5522 16.33 60.6608 16.2431C60.7296 16.1801 60.7972 16.116 60.8649 16.0518C60.9827 15.9411 61.1028 15.833 61.2228 15.7247C61.2796 15.6718 61.335 15.6174 61.3887 15.5615C61.4784 15.4711 61.5734 15.3935 61.6723 15.3132C61.7267 15.2684 61.781 15.2235 61.8354 15.1786C61.9185 15.11 62.0016 15.0415 62.0848 14.9731C62.1285 14.9371 62.1721 14.9011 62.2157 14.8651C62.2793 14.8125 62.343 14.7601 62.4067 14.7076C62.4259 14.6918 62.4451 14.6759 62.4648 14.6595C62.5951 14.5527 62.7297 14.4585 62.8695 14.3649C62.9366 14.3107 63.0033 14.2559 63.0697 14.2008C63.1552 14.1341 63.2417 14.0687 63.3283 14.0033C63.3504 13.9865 63.3725 13.9697 63.3952 13.9524C63.7556 13.6801 63.7556 13.6801 63.8558 13.6899C63.8714 13.6551 63.887 13.6202 63.903 13.5843C64.0798 13.4546 64.0798 13.4546 64.1724 13.4638C64.1748 13.4397 64.1772 13.4157 64.1796 13.3909C64.2462 13.342 64.2462 13.342 64.332 13.291C64.3743 13.2655 64.3743 13.2655 64.4173 13.2394C64.4927 13.2012 64.4927 13.2012 64.5655 13.2084C64.5679 13.1843 64.5703 13.1603 64.5727 13.1355C64.6529 13.0788 64.7325 13.0267 64.8161 12.9757C64.8501 12.9541 64.8501 12.9541 64.8849 12.9322C65.0112 12.854 65.125 12.7962 65.2716 12.7632C65.274 12.7392 65.2764 12.7151 65.2788 12.6904C65.3488 12.6425 65.3488 12.6425 65.4501 12.5854C65.4892 12.5632 65.5283 12.5409 65.5686 12.518C65.5907 12.5055 65.6128 12.493 65.6356 12.4801C65.7151 12.4347 65.7939 12.3885 65.8728 12.342C66.2416 12.125 66.6137 11.917 66.9933 11.7195C67.0238 11.7036 67.0543 11.6876 67.0858 11.6712C67.455 11.4781 67.8245 11.286 68.2007 11.1069C68.2525 11.0822 68.3043 11.0574 68.356 11.0325C68.7418 10.8472 69.1286 10.6668 69.524 10.5028C69.6722 10.4486 69.6722 10.4486 69.7782 10.3395C69.7474 10.332 69.7165 10.3245 69.6847 10.3168C69.5621 10.2812 69.4542 10.2352 69.3386 10.1812C68.3765 9.74268 67.3766 9.39128 66.3605 9.10141C66.2735 9.07649 66.1867 9.05104 66.1 9.02517C65.1397 8.73961 64.1673 8.52822 63.1779 8.37127C63.0746 8.35487 62.9715 8.33794 62.8683 8.32089C61.9148 8.1684 60.9444 8.08781 59.9803 8.04386C59.9385 8.04191 59.9385 8.04191 59.896 8.03991C59.5132 8.02253 59.1322 8.02206 58.7492 8.02895C58.6476 8.03042 58.5459 8.03002 58.4442 8.02943C57.4061 8.02687 56.3769 8.12851 55.3499 8.27406C55.3153 8.27893 55.2807 8.2838 55.245 8.28881C54.583 8.38281 53.9343 8.52037 53.2846 8.67699C53.2401 8.68761 53.1956 8.69822 53.1498 8.70916C53.0165 8.7411 52.8832 8.77336 52.7499 8.8058C52.7264 8.81152 52.7028 8.81724 52.6786 8.82314C52.6075 8.84045 52.5365 8.85793 52.4654 8.8754C52.4236 8.88567 52.3819 8.89593 52.3388 8.9065C52.1941 8.94494 52.0542 8.99288 51.9132 9.04298C51.8105 9.07763 51.7072 9.10783 51.6028 9.13681C51.3505 9.20686 51.107 9.28964 50.8633 9.38544C50.692 9.45275 50.5197 9.51581 50.3459 9.57666C50.0705 9.67313 49.8029 9.77546 49.5392 9.90115C49.4411 9.94758 49.3424 9.99015 49.2422 10.0317C49.1036 10.0895 48.9666 10.1502 48.8303 10.213C48.7975 10.2281 48.7648 10.2431 48.7311 10.2586C48.6654 10.2889 48.5998 10.3194 48.5343 10.35C48.5039 10.3641 48.4735 10.3781 48.4422 10.3925C48.4015 10.4115 48.4015 10.4115 48.3599 10.4309C48.2831 10.4608 48.2148 10.4746 48.1331 10.4831C48.1307 10.5071 48.1284 10.5312 48.1259 10.5559C48.0699 10.5812 48.0137 10.6063 47.9575 10.6312C47.9263 10.6452 47.895 10.6592 47.8628 10.6736C47.78 10.7057 47.78 10.7057 47.7072 10.6985C47.7048 10.7225 47.7024 10.7465 47.7 10.7713C47.628 10.8135 47.628 10.8135 47.5255 10.8621C47.3015 10.9712 47.0845 11.0905 46.868 11.2139C46.7347 11.2887 46.6128 11.3504 46.4623 11.3847C46.4599 11.4087 46.4575 11.4327 46.4551 11.4575C46.4058 11.4648 46.3565 11.472 46.3057 11.4795C46.3034 11.5036 46.301 11.5276 46.2986 11.5524C46.2459 11.5817 46.193 11.6106 46.1392 11.6377C45.992 11.7153 45.8532 11.8076 45.7127 11.8968C45.6821 11.9161 45.6515 11.9354 45.6199 11.9554C45.486 12.0401 45.3533 12.1253 45.2237 12.2164C45.1229 12.2822 45.1229 12.2822 45.05 12.275C45.0345 12.3098 45.0189 12.3447 45.0028 12.3806C44.9256 12.4228 44.8479 12.4641 44.7698 12.5048C44.7026 12.5588 44.6359 12.6136 44.5697 12.6689C44.4947 12.7271 44.4192 12.7848 44.3434 12.8419C44.3055 12.8706 44.2676 12.8994 44.2286 12.929C44.133 12.9935 44.133 12.9935 44.0601 12.9863C44.0446 13.0212 44.029 13.0561 44.0129 13.092C43.946 13.1473 43.946 13.1473 43.8639 13.2037C43.8353 13.2236 43.8067 13.2435 43.7772 13.264C43.7168 13.3044 43.6554 13.3434 43.5935 13.3816C43.4861 13.4552 43.4 13.5402 43.3095 13.6334C43.2919 13.6485 43.2742 13.6637 43.256 13.6793C43.2319 13.6769 43.2079 13.6745 43.1831 13.6721C43.1675 13.7069 43.152 13.7418 43.1359 13.7777C43.0575 13.8504 43.0575 13.8504 42.9758 13.909C42.9518 13.9067 42.9277 13.9043 42.9029 13.9018C42.8874 13.9367 42.8718 13.9716 42.8557 14.0075C42.7906 14.0641 42.7235 14.1184 42.6556 14.1716C42.4868 14.3063 42.3253 14.4456 42.1689 14.5946C42.0484 14.7083 41.9249 14.8187 41.8016 14.9294C41.7269 14.9945 41.7269 14.9945 41.6841 15.0687C41.6601 15.0663 41.6361 15.0639 41.6113 15.0615C41.6014 15.0799 41.5916 15.0983 41.5815 15.1173C41.5025 15.2309 41.4033 15.3208 41.3028 15.4149C41.194 15.5169 41.0918 15.6131 41.0033 15.7337C40.9766 15.7691 40.9766 15.7691 40.9493 15.8052C40.9252 15.8028 40.9012 15.8005 40.8764 15.798C40.8645 15.8237 40.8526 15.8493 40.8403 15.8758C40.7825 15.9784 40.7209 16.0462 40.6369 16.1283C40.4593 16.3061 40.2924 16.491 40.1272 16.6802C40.1072 16.7029 40.0873 16.7256 40.0668 16.749C40.0004 16.8247 39.9342 16.9006 39.868 16.9764C39.847 17.0004 39.8259 17.0244 39.8042 17.0492C39.6794 17.193 39.5657 17.3397 39.458 17.4968C39.4339 17.4944 39.4099 17.492 39.3851 17.4896C39.3741 17.5135 39.363 17.5373 39.3517 17.5619C39.2808 17.6886 39.1942 17.7955 39.1024 17.9076C38.9699 18.0673 38.9699 18.0673 38.8688 18.2477C38.8448 18.2453 38.8207 18.243 38.7959 18.2405C38.7899 18.2607 38.7839 18.281 38.7777 18.3018C38.7404 18.3944 38.6919 18.4602 38.6308 18.5391C38.019 19.3464 37.4816 20.2253 37.0021 21.1162C36.9193 21.2697 36.8345 21.4212 36.7451 21.5709C36.6625 21.7112 36.5975 21.8527 36.5399 22.005C36.498 22.1069 36.4501 22.2045 36.401 22.3031C36.2283 22.6507 36.0684 23.0031 35.9261 23.3643C35.8783 23.4857 35.8284 23.6053 35.7741 23.7239C35.6834 23.9251 35.6067 24.1312 35.5293 24.3377C35.514 24.3786 35.4986 24.4194 35.4828 24.4615C35.2932 24.9671 35.1143 25.476 34.9411 25.9875C34.9235 26.0392 34.9235 26.0392 34.9056 26.0919C34.5894 27.0248 34.3012 27.9658 34.0359 28.9143C33.9297 29.2925 33.8183 29.6692 33.7073 30.0461C33.5561 30.5595 33.4055 31.073 33.2616 31.5886C33.1469 31.9988 33.0224 32.4052 32.8928 32.8109C32.8465 32.9565 32.8011 33.1024 32.7557 33.2482C32.6648 33.5394 32.5731 33.8302 32.4784 34.1201C32.4706 34.1438 32.4629 34.1675 32.4549 34.1919C32.3963 34.3699 32.3333 34.5462 32.2699 34.7226C32.2257 34.8463 32.1825 34.9703 32.1393 35.0943C31.9131 35.741 31.6649 36.373 31.3893 37.0006C31.3711 37.0422 31.3529 37.0838 31.3341 37.1267C31.0501 37.774 30.761 38.4201 30.4157 39.0375C30.3966 39.0716 30.3966 39.0716 30.3772 39.1064C29.9373 39.8915 29.4721 40.6526 28.9353 41.3759C28.8736 41.4601 28.8151 41.5429 28.7617 41.6324C28.7376 41.63 28.7136 41.6277 28.6888 41.6252C28.6768 41.6502 28.6648 41.6752 28.6524 41.7009C28.5945 41.8064 28.5283 41.8944 28.4529 41.9881C28.3778 42.082 28.3039 42.1748 28.2349 42.2734C28.2155 42.2977 28.1961 42.3219 28.1761 42.3469C28.1521 42.3445 28.128 42.3422 28.1032 42.3397C28.0934 42.363 28.0835 42.3863 28.0733 42.4103C28.0025 42.5315 27.9168 42.6236 27.8202 42.7248C27.763 42.783 27.763 42.783 27.7214 42.8537C27.6974 42.8513 27.6733 42.8489 27.6486 42.8465C27.6375 42.8658 27.6265 42.8852 27.6152 42.9051C27.5515 42.9996 27.478 43.0744 27.3974 43.155C27.3104 43.2421 27.2284 43.3271 27.1503 43.4225C27.1262 43.4201 27.1022 43.4177 27.0774 43.4153C27.0655 43.4353 27.0537 43.4554 27.0415 43.4761C26.9889 43.5557 26.9354 43.6227 26.8665 43.6887C26.8424 43.6863 26.8184 43.6839 26.7936 43.6815C26.7648 43.7272 26.736 43.7729 26.7064 43.82C26.6823 43.8176 26.6583 43.8152 26.6335 43.8128C26.6218 43.8333 26.61 43.8538 26.5979 43.8749C26.5444 43.954 26.4913 44.005 26.4177 44.0656C26.393 44.0859 26.3684 44.1062 26.3429 44.1271C26.3044 44.1583 26.3044 44.1583 26.2652 44.1901C26.2394 44.2115 26.2137 44.2328 26.1872 44.2548C26.1626 44.275 26.1379 44.2951 26.1125 44.3159C26.09 44.3343 26.0674 44.3527 26.0442 44.3716C25.9859 44.4108 25.9859 44.4108 25.913 44.4036C25.8974 44.4385 25.8818 44.4734 25.8658 44.5093C25.7822 44.5697 25.7822 44.5697 25.6788 44.6333C25.572 44.6994 25.4726 44.7647 25.3756 44.8446C25.2622 44.9373 25.1431 45.0167 25.0194 45.0946C24.9953 45.1098 24.9713 45.125 24.9465 45.1406C24.0829 45.6819 23.169 46.1529 22.2111 46.5022C22.1862 46.5114 22.1613 46.5207 22.1357 46.5302C21.4678 46.7782 20.7865 46.9952 20.0882 47.1385C20.033 47.1508 19.9779 47.1631 19.9228 47.1756C19.5147 47.2666 19.1061 47.3314 18.6912 47.3827C18.6202 47.3916 18.5493 47.401 18.4785 47.4106C16.6454 47.6583 14.7599 47.5082 12.976 47.0295C12.9493 47.0223 12.9227 47.0152 12.8952 47.0078C12.3473 46.8596 11.8139 46.6822 11.2918 46.4587C11.2526 46.442 11.2133 46.4253 11.1729 46.4082C11.0587 46.3595 10.9447 46.3105 10.8308 46.2615C10.785 46.242 10.785 46.242 10.7384 46.2222C10.3228 46.0451 9.926 45.8413 9.5331 45.6185C9.49828 45.5988 9.49828 45.5988 9.46276 45.5787C9.12887 45.3882 8.80813 45.1792 8.48955 44.9643C8.43414 44.927 8.37842 44.8902 8.32265 44.8535C7.92205 44.5874 7.54652 44.2844 7.17706 43.9771C7.09012 43.9046 7.09012 43.9046 6.99277 43.838C6.96837 43.8186 6.94397 43.7991 6.91883 43.7791C6.9212 43.7551 6.92358 43.731 6.92602 43.7063C6.90824 43.6962 6.89046 43.6861 6.87214 43.6757C6.75374 43.5965 6.64862 43.5043 6.54132 43.4109C6.50825 43.3827 6.50825 43.3827 6.47451 43.354C6.41922 43.3059 6.3661 43.2554 6.31338 43.2045C6.31575 43.1805 6.31813 43.1564 6.32057 43.1317C6.29602 43.1214 6.27147 43.1112 6.24618 43.1006C6.11796 43.0244 6.03146 42.9233 5.93607 42.811C5.90047 42.7697 5.86483 42.7285 5.82914 42.6874C5.81077 42.6661 5.7924 42.6449 5.77347 42.623C5.71267 42.5543 5.64998 42.4878 5.58668 42.4214C5.43452 42.2603 5.2932 42.0912 5.15262 41.92C5.11439 41.8742 5.11439 41.8742 5.07539 41.8274C5.05138 41.7982 5.02738 41.769 5.00264 41.739C4.98091 41.7127 4.95918 41.6864 4.93679 41.6592C4.89059 41.593 4.89059 41.593 4.89778 41.5202C4.8629 41.5046 4.82802 41.489 4.79208 41.473C4.73164 41.3894 4.73164 41.3894 4.66798 41.286C4.603 41.1809 4.53924 41.0832 4.45983 40.9884C4.34518 40.8462 4.25113 40.6944 4.15542 40.539C4.12693 40.4936 4.12693 40.4936 4.09786 40.4473C4.07997 40.4184 4.06208 40.3895 4.04364 40.3597C4.01923 40.3204 4.01923 40.3204 3.99433 40.2802C3.95988 40.214 3.95988 40.214 3.96707 40.1412C3.94303 40.1388 3.91898 40.1364 3.89421 40.134C3.88693 40.0847 3.87965 40.0354 3.87215 39.9847C3.84811 39.9823 3.82406 39.9799 3.79929 39.9775C3.75056 39.8932 3.75056 39.8932 3.69681 39.7812C3.63511 39.6549 3.57369 39.5306 3.50121 39.4102C3.4313 39.291 3.37724 39.1685 3.32396 39.0411C3.28726 38.9566 3.2491 38.8737 3.20929 38.7907C3.06703 38.4931 2.93762 38.1948 2.82643 37.8841C2.81542 37.8533 2.8044 37.8226 2.79305 37.791C2.65503 37.3961 2.65235 36.8981 2.83534 36.5128C2.99182 36.2612 3.22738 36.0563 3.49893 35.9393C3.55604 35.9142 3.55604 35.9142 3.6143 35.8886C3.94393 35.7923 4.36168 35.8406 4.67196 35.9815C4.81766 36.0709 4.95706 36.1648 5.08398 36.2796C5.08161 36.3037 5.07924 36.3277 5.07679 36.3525C5.10084 36.3548 5.12488 36.3572 5.14966 36.3597C5.27569 36.5808 5.36144 36.8167 5.45108 37.0541C5.72851 37.7891 6.10108 38.476 6.51255 39.1436C6.57815 39.2506 6.64258 39.3584 6.70697 39.4661C6.76772 39.5622 6.8404 39.6462 6.91353 39.7333C6.95834 39.7942 7.00286 39.8553 7.04719 39.9165C7.30538 40.269 7.58166 40.6077 7.89417 40.9136C7.94184 40.9604 7.98791 41.0087 8.03359 41.0574C8.03122 41.0815 8.02885 41.1055 8.0264 41.1303C8.04573 41.142 8.06505 41.1538 8.08496 41.1659C8.17228 41.2222 8.2559 41.2789 8.33632 41.3447C8.33395 41.3688 8.33157 41.3928 8.32913 41.4176C8.38687 41.4475 8.44461 41.4775 8.5041 41.5084C8.50173 41.5324 8.49935 41.5565 8.49691 41.5812C8.54381 41.598 8.59072 41.6148 8.63904 41.632C8.63667 41.6561 8.6343 41.6801 8.63185 41.7049C8.66986 41.7234 8.66986 41.7234 8.70863 41.7423C8.80674 41.7957 8.89275 41.8511 8.9782 41.923C8.97583 41.947 8.97346 41.971 8.97101 41.9958C8.99958 42.0062 9.02814 42.0166 9.05757 42.0273C9.19236 42.0952 9.29255 42.1763 9.40737 42.273C10.5697 43.2455 12.0467 43.8587 13.4769 44.3069C13.5263 44.3228 13.5263 44.3228 13.5767 44.3389C14.2142 44.5336 14.8712 44.6129 15.5326 44.6757C15.6604 44.6879 15.788 44.7009 15.9157 44.714C16.5643 44.7785 17.2015 44.8049 17.8511 44.7387C17.911 44.7329 17.911 44.7329 17.9722 44.727C19.0672 44.616 20.156 44.3982 21.1758 43.9735C21.2566 43.9405 21.338 43.9093 21.4196 43.8783C22.0434 43.6383 22.621 43.3185 23.1957 42.9793C23.2253 42.9618 23.2549 42.9443 23.2854 42.9263C23.46 42.8216 23.6254 42.7093 23.788 42.5868C23.8524 42.5453 23.8524 42.5453 23.9253 42.5525C23.9409 42.5176 23.9564 42.4828 23.9725 42.4468C24.0395 42.3915 24.0395 42.3915 24.1215 42.3351C24.1501 42.3152 24.1788 42.2953 24.2083 42.2747C24.2678 42.2349 24.3284 42.1967 24.3894 42.1593C24.5024 42.0814 24.5962 41.9914 24.6949 41.8964C24.7893 41.8082 24.8888 41.7279 24.9902 41.6479C25.0581 41.5928 25.0581 41.5928 25.1333 41.4949C25.1573 41.4973 25.1814 41.4997 25.2061 41.5021C25.2183 41.4816 25.2305 41.4611 25.243 41.4399C25.2911 41.3671 25.3399 41.3116 25.4021 41.2507C25.4235 41.2296 25.4448 41.2084 25.4668 41.1867C25.4896 41.1642 25.5125 41.1418 25.536 41.1186C26.3256 40.362 26.3256 40.362 26.9156 39.4643C26.9396 39.4667 26.9637 39.469 26.9884 39.4715C26.9983 39.4322 26.9983 39.4322 27.0084 39.3921C27.045 39.2866 27.0895 39.2217 27.1586 39.1346C27.2983 38.9522 27.4179 38.7619 27.5355 38.5647C27.5565 38.5297 27.5775 38.4946 27.5992 38.4585C28.0336 37.7315 28.4135 36.9844 28.7521 36.2078C28.7893 36.1225 28.827 36.0373 28.8647 35.9521C29.0269 35.5824 29.1697 35.2073 29.3073 34.8279C29.3579 34.6887 29.411 34.5509 29.4665 34.4136C29.7821 33.6284 30.0234 32.8078 30.2598 31.9959C30.3088 31.828 30.3607 31.6612 30.4141 31.4946C30.61 30.8831 30.7823 30.2647 30.9573 29.647C31.0222 29.418 31.0874 29.1891 31.1529 28.9603C31.2278 28.6984 31.3022 28.4365 31.3763 28.1744C31.7257 26.9401 31.7257 26.9401 31.8855 26.4603C31.9695 26.2081 32.0464 25.954 32.1227 25.6993C32.2356 25.323 32.3557 24.9527 32.4969 24.5862C32.5615 24.418 32.6189 24.2476 32.6765 24.0768C32.7832 23.7627 32.8997 23.4525 33.0193 23.143C33.0359 23.0999 33.0526 23.0568 33.0697 23.0123C33.3221 22.3623 33.3221 22.3623 33.456 22.0963C33.5363 21.9323 33.6084 21.7643 33.6823 21.5972C33.787 21.3605 33.8926 21.1251 34.0092 20.894C34.0207 20.8709 34.0322 20.8478 34.044 20.8241C34.3403 20.2299 34.6538 19.6472 34.9976 19.0792C35.0363 19.015 35.075 18.9507 35.1137 18.8865C35.3342 18.5207 35.5565 18.1563 35.7864 17.7964C35.8105 17.7987 35.8345 17.8011 35.8593 17.8035C35.8665 17.7681 35.8665 17.7681 35.8738 17.732C35.9296 17.5823 36.0205 17.4684 36.1164 17.3416C36.1533 17.2923 36.1902 17.2428 36.2271 17.1934C36.2456 17.1685 36.2642 17.1437 36.2833 17.118C36.3391 17.042 36.3929 16.9648 36.4463 16.8871C36.5531 16.7316 36.665 16.5805 36.7789 16.4302C36.7991 16.4034 36.8193 16.3767 36.8402 16.3492C36.9822 16.1623 37.1285 15.98 37.279 15.7998C37.3773 15.6787 37.4678 15.5527 37.5572 15.425C37.5741 15.4052 37.5909 15.3855 37.6083 15.3651C37.6323 15.3675 37.6564 15.3698 37.6811 15.3723C37.692 15.3483 37.7028 15.3243 37.7139 15.2995C37.7865 15.1719 37.8765 15.0708 37.9745 14.9622C38.0106 14.9218 38.0467 14.8814 38.0828 14.8409C38.109 14.8117 38.109 14.8117 38.1357 14.7819C38.1855 14.7247 38.2323 14.6658 38.279 14.606C38.3037 14.5774 38.3285 14.5488 38.3539 14.5193C38.378 14.5217 38.402 14.5241 38.4268 14.5265C38.4568 14.4688 38.4868 14.4111 38.5176 14.3516C38.5417 14.354 38.5657 14.3563 38.5905 14.3588C38.6073 14.3119 38.624 14.265 38.6413 14.2167C38.6654 14.2191 38.6894 14.2214 38.7142 14.2239C38.7262 14.1984 38.7382 14.1729 38.7506 14.1466C38.8074 14.0448 38.8694 13.9704 38.9498 13.8863C38.9748 13.8597 38.9999 13.8331 39.0256 13.8057C39.0477 13.7861 39.0697 13.7665 39.0924 13.7464C39.1164 13.7487 39.1405 13.7511 39.1653 13.7536C39.1807 13.726 39.1807 13.726 39.1965 13.6979C39.2709 13.5879 39.36 13.494 39.451 13.3979C39.4685 13.379 39.4861 13.3602 39.5041 13.3407C39.6169 13.221 39.7351 13.1163 39.8637 13.0134C39.928 12.9566 39.992 12.8993 40.0554 12.8416C40.1026 12.7988 40.1026 12.7988 40.1507 12.7552C40.228 12.6871 40.228 12.6871 40.2712 12.6123C40.2952 12.6147 40.3193 12.6171 40.344 12.6195C40.3556 12.5994 40.3673 12.5793 40.3792 12.5586C40.5143 12.3574 40.7111 12.2174 40.9116 12.0871C40.9548 12.0477 40.9974 12.0075 41.0394 11.9669C41.1933 11.821 41.3543 11.6857 41.5186 11.5517C41.5459 11.5292 41.5731 11.5067 41.6012 11.4835C41.7185 11.3876 41.8353 11.2938 41.9614 11.2097C42.0714 11.1359 42.1708 11.0558 42.2725 10.9711C42.3673 10.8961 42.463 10.8224 42.5589 10.7488C42.5839 10.7293 42.609 10.7098 42.6348 10.6897C42.6588 10.6714 42.6827 10.653 42.7075 10.6341C42.74 10.609 42.74 10.609 42.7731 10.5834C42.8293 10.548 42.8293 10.548 42.9022 10.5552C42.9178 10.5203 42.9334 10.4854 42.9494 10.4495C43.1262 10.3198 43.1262 10.3198 43.2188 10.329C43.2344 10.2941 43.25 10.2592 43.266 10.2233C43.341 10.1688 43.341 10.1688 43.4332 10.1134C43.4808 10.0845 43.4808 10.0845 43.5294 10.0551C43.559 10.0372 43.5886 10.0192 43.6191 10.0007C43.6573 9.97493 43.6955 9.94912 43.7349 9.92252C43.8156 9.87303 43.8156 9.87303 43.8885 9.88023C43.9041 9.84535 43.9197 9.81048 43.9357 9.77456C44.0099 9.72412 44.0862 9.67684 44.1637 9.63157C44.205 9.6072 44.2463 9.58284 44.2889 9.55774C44.3273 9.53536 44.3657 9.51298 44.4053 9.48992C44.4492 9.46184 44.4492 9.46184 44.4941 9.43318C44.5618 9.39505 44.5618 9.39505 44.6346 9.40224C44.637 9.3782 44.6394 9.35416 44.6418 9.3294C44.7216 9.27807 44.8008 9.23124 44.8837 9.18548C44.9202 9.16495 44.9202 9.16495 44.9575 9.14401C45.0085 9.1154 45.0596 9.0869 45.1107 9.05851C45.1855 9.01685 45.2599 8.9746 45.3342 8.93215C45.3796 8.9064 45.425 8.88067 45.4704 8.85495C45.5116 8.83161 45.5528 8.80828 45.5952 8.78423C45.6938 8.73449 45.6938 8.73449 45.7667 8.74169C45.769 8.71765 45.7714 8.69361 45.7739 8.66884C45.8856 8.64347 45.8856 8.64347 45.9996 8.61758C46.002 8.59354 46.0044 8.5695 46.0068 8.54474C46.0941 8.49628 46.1807 8.4525 46.2708 8.40989C46.3282 8.38217 46.3856 8.35441 46.4429 8.32662C46.4882 8.30483 46.4882 8.30483 46.5343 8.28259C46.652 8.22523 46.7686 8.16576 46.8853 8.10626C47.5171 7.78494 48.1587 7.48058 48.8254 7.23836C48.9551 7.1908 49.0839 7.14089 49.2128 7.09136C49.2642 7.07177 49.3157 7.05218 49.3671 7.0326C49.4521 7.00011 49.5369 6.96704 49.6215 6.93331C49.8996 6.82318 50.1827 6.73238 50.4683 6.64376C50.636 6.59171 50.8026 6.53791 50.9684 6.48015C51.2032 6.3997 51.441 6.333 51.6806 6.26845C51.7038 6.26219 51.727 6.25593 51.751 6.24948C52.854 5.95294 53.9738 5.70861 55.1076 5.5666C55.2177 5.55273 55.3276 5.53824 55.4376 5.52381C56.7268 5.35761 58.013 5.29725 59.3116 5.29093C59.3489 5.29066 59.3489 5.29066 59.387 5.29038C59.9202 5.29062 60.4508 5.33078 60.981 5.38287Z" fill="#0F748F" fill-opacity="0.2"/>
<path d="M104.011 39.2042C104.038 39.2113 104.065 39.2184 104.093 39.2258C104.879 39.4342 105.642 39.6902 106.398 39.9915C106.449 40.0115 106.449 40.0115 106.5 40.0319C107.445 40.4048 108.371 40.8512 109.241 41.3754C109.31 41.416 109.38 41.4566 109.45 41.4971C109.531 41.5449 109.612 41.5927 109.693 41.6406C109.72 41.6568 109.748 41.673 109.776 41.6897C110.13 41.8985 110.477 42.1096 110.807 42.3539C110.895 42.416 110.982 42.4661 111.078 42.5129C111.076 42.5369 111.074 42.561 111.071 42.5858C111.097 42.5919 111.122 42.5981 111.148 42.6045C111.265 42.6457 111.349 42.7022 111.449 42.7751C111.506 42.8161 111.506 42.8161 111.565 42.858C111.584 42.8723 111.604 42.8867 111.624 42.9014C111.683 42.9443 111.742 42.9868 111.801 43.0293C112.013 43.1825 112.221 43.3393 112.426 43.5016C112.588 43.6295 112.752 43.7546 112.916 43.8803C113.469 44.306 114.017 44.7381 114.548 45.1906C114.902 45.4974 114.902 45.4974 115.275 45.781C115.299 45.8004 115.323 45.8197 115.348 45.8397C115.346 45.8637 115.344 45.8878 115.341 45.9125C115.411 45.9437 115.481 45.9748 115.553 46.0069C115.55 46.031 115.548 46.055 115.545 46.0798C115.582 46.0967 115.582 46.0967 115.619 46.114C115.737 46.18 115.834 46.2618 115.935 46.3504C116.062 46.4611 116.19 46.5691 116.326 46.6694C116.362 46.698 116.398 46.7266 116.435 46.756C116.433 46.7801 116.43 46.8041 116.428 46.8289C116.475 46.8456 116.522 46.8624 116.57 46.8797C116.568 46.9037 116.565 46.9277 116.563 46.9525C116.607 46.9685 116.607 46.9685 116.652 46.9849C116.806 47.0629 116.913 47.1655 117.036 47.2842C117.216 47.4543 117.396 47.6113 117.602 47.7506C117.62 47.7656 117.638 47.7806 117.657 47.796C117.654 47.82 117.652 47.8441 117.65 47.8688C117.675 47.8808 117.7 47.8928 117.726 47.9051C117.831 47.9632 117.916 48.0292 118.008 48.1065C118.062 48.1512 118.062 48.1512 118.116 48.1968C118.145 48.2206 118.145 48.2206 118.174 48.2449C118.276 48.33 118.379 48.4139 118.482 48.498C118.61 48.6028 118.738 48.7076 118.866 48.8127C119.333 49.1971 119.803 49.5785 120.287 49.9421C120.374 50.0086 120.458 50.0771 120.542 50.1472C120.634 50.2233 120.727 50.2941 120.826 50.361C121.057 50.5198 121.283 50.6861 121.51 50.8514C121.83 51.0835 122.156 51.3052 122.485 51.5227C122.633 51.6206 122.782 51.7186 122.929 51.818C123.154 51.9699 123.379 52.117 123.619 52.2459C123.699 52.2898 123.779 52.3337 123.858 52.3776C123.901 52.4007 123.943 52.4238 123.986 52.4476C124.09 52.5052 124.192 52.5646 124.294 52.6252C124.472 52.7294 124.656 52.8199 124.842 52.9097C124.984 52.9786 125.123 53.0507 125.261 53.1274C125.469 53.2414 125.686 53.3325 125.905 53.4233C126.004 53.4646 126.103 53.5068 126.2 53.5512C126.657 53.7562 127.123 53.9344 127.592 54.1091C127.645 54.1291 127.645 54.1291 127.7 54.1495C128.111 54.3021 128.521 54.4436 128.947 54.5503C129.046 54.5755 129.143 54.6051 129.24 54.638C129.612 54.7624 129.999 54.8436 130.379 54.936C130.414 54.9446 130.449 54.9532 130.485 54.9621C133.782 55.773 137.403 55.8598 140.93 55.195C141.053 55.1723 141.176 55.1518 141.299 55.1313C141.529 55.0929 141.752 55.0502 141.975 54.9798C142.079 54.9497 142.184 54.9261 142.29 54.9033C143.372 54.6699 144.416 54.3083 145.452 53.923C145.491 53.9085 145.53 53.894 145.57 53.8791C145.811 53.7885 146.046 53.6902 146.279 53.5817C146.467 53.4946 146.655 53.4096 146.846 53.3303C147.127 53.2124 147.396 53.0733 147.667 52.9359C147.706 52.9161 147.746 52.8964 147.786 52.876C147.821 52.8582 147.857 52.8403 147.893 52.8219C147.988 52.7784 148.081 52.7478 148.182 52.7215C148.185 52.6974 148.187 52.6734 148.19 52.6486C148.301 52.6232 148.301 52.6232 148.415 52.5973C148.418 52.5733 148.42 52.5493 148.422 52.5245C148.472 52.5172 148.521 52.51 148.572 52.5025C148.574 52.4784 148.577 52.4544 148.579 52.4296C148.645 52.3887 148.645 52.3887 148.73 52.348C148.771 52.3275 148.771 52.3275 148.814 52.3066C148.888 52.2763 148.888 52.2763 148.961 52.2835C148.964 52.2594 148.966 52.2354 148.968 52.2106C149.062 52.1835 149.062 52.1835 149.158 52.1558C149.16 52.1317 149.163 52.1077 149.165 52.0829C149.216 52.0543 149.267 52.0262 149.319 52.0002C149.418 51.9483 149.513 51.8903 149.608 51.8325C149.78 51.7309 149.945 51.6546 150.133 51.5901C150.159 51.5798 150.185 51.5695 150.212 51.5588C150.503 51.4522 150.867 51.5279 151.141 51.6516C151.479 51.8352 151.691 52.1113 151.829 52.4677C151.879 52.6639 151.862 52.8534 151.844 53.053C151.842 53.0842 151.839 53.1155 151.836 53.1476C151.801 53.4621 151.671 53.6643 151.451 53.89C151.427 53.8876 151.403 53.8852 151.379 53.8828C151.376 53.9068 151.374 53.9309 151.371 53.9556C151.278 53.9828 151.278 53.9828 151.182 54.0105C151.18 54.0345 151.177 54.0586 151.175 54.0833C151.091 54.1364 151.008 54.1853 150.921 54.233C150.871 54.261 150.821 54.2891 150.771 54.3172C150.746 54.3309 150.722 54.3445 150.697 54.3585C150.586 54.4213 150.479 54.4889 150.372 54.5572C150.316 54.587 150.316 54.587 150.243 54.5798C150.241 54.6038 150.238 54.6278 150.236 54.6526C150.186 54.6599 150.137 54.6671 150.086 54.6746C150.084 54.6987 150.082 54.7227 150.079 54.7475C150.013 54.7884 150.013 54.7884 149.929 54.8291C149.901 54.8428 149.873 54.8565 149.844 54.8705C149.77 54.9008 149.77 54.9008 149.697 54.8936C149.695 54.9177 149.692 54.9417 149.69 54.9665C149.603 55.0188 149.603 55.0188 149.488 55.0753C149.451 55.094 149.414 55.1127 149.375 55.1319C149.275 55.1766 149.18 55.2095 149.074 55.2367C149.072 55.2608 149.07 55.2848 149.067 55.3096C148.986 55.3534 148.986 55.3534 148.872 55.4029C148.829 55.4218 148.787 55.4407 148.743 55.4601C148.72 55.4701 148.697 55.4802 148.674 55.4905C148.562 55.5407 148.451 55.5939 148.34 55.6469C148.291 55.6701 148.242 55.6932 148.193 55.7164C148.104 55.7582 148.016 55.8001 147.927 55.8422C147.48 56.0548 147.033 56.2566 146.566 56.4234C146.522 56.4392 146.522 56.4392 146.477 56.4554C146.352 56.5004 146.226 56.5454 146.101 56.5901C145.934 56.6491 145.769 56.7101 145.605 56.7744C145.209 56.9271 144.805 57.0498 144.396 57.1591C144.294 57.188 144.195 57.2213 144.095 57.2574C142.502 57.8088 140.725 58.0509 139.056 58.2011C138.972 58.2088 138.888 58.2169 138.804 58.2253C138.021 58.3005 137.232 58.32 136.445 58.3297C136.412 58.3301 136.379 58.3305 136.345 58.331C136.251 58.3321 136.157 58.3328 136.063 58.3333C136.038 58.3336 136.012 58.3338 135.985 58.3341C135.438 58.3349 134.893 58.2924 134.348 58.2379C134.287 58.2319 134.226 58.2259 134.165 58.2199C134.038 58.2075 133.912 58.1949 133.785 58.1822C133.625 58.1662 133.464 58.1505 133.304 58.1349C133.178 58.1226 133.053 58.1101 132.927 58.0976C132.868 58.0918 132.809 58.086 132.75 58.0802C132.145 58.0212 131.547 57.9319 130.951 57.8126C130.904 57.8032 130.857 57.7938 130.808 57.7841C130.065 57.6347 129.326 57.4703 128.602 57.2457C128.484 57.2099 128.366 57.1757 128.248 57.1416C127.319 56.8722 126.399 56.5696 125.511 56.1838C125.462 56.1629 125.414 56.142 125.365 56.1211C123.88 55.4817 123.88 55.4817 123.239 55.1302C123.138 55.0754 123.037 55.0217 122.935 54.9686C122.885 54.9421 122.885 54.9421 122.833 54.9152C122.767 54.8802 122.7 54.8454 122.633 54.8107C122.447 54.7133 122.269 54.6096 122.092 54.4966C121.933 54.3951 121.771 54.2987 121.609 54.2013C121.206 53.9573 120.807 53.7117 120.423 53.4377C120.329 53.3703 120.24 53.3102 120.134 53.2627C120.136 53.2386 120.139 53.2146 120.141 53.1898C120.121 53.184 120.102 53.1781 120.082 53.172C119.835 53.0735 119.618 52.8815 119.415 52.7137C119.368 52.6802 119.321 52.6472 119.273 52.6146C119.142 52.5242 119.01 52.4334 118.88 52.3413C118.844 52.3164 118.809 52.2915 118.772 52.2659C118.746 52.2445 118.72 52.2231 118.693 52.2011C118.696 52.1771 118.698 52.153 118.701 52.1283C118.67 52.1162 118.64 52.1041 118.609 52.0916C118.479 52.029 118.381 51.9555 118.269 51.865C118.249 51.8484 118.228 51.8319 118.207 51.8148C118.142 51.762 118.077 51.7089 118.012 51.6557C117.969 51.6213 117.927 51.5869 117.885 51.5526C117.757 51.4479 117.629 51.3428 117.501 51.2376C117.409 51.1618 117.317 51.086 117.225 51.0103C117.204 50.993 117.183 50.9758 117.161 50.958C117.072 50.8851 116.984 50.8146 116.89 50.7484C116.866 50.7298 116.843 50.7113 116.819 50.6922C116.822 50.6681 116.824 50.6441 116.826 50.6193C116.797 50.6081 116.767 50.5968 116.736 50.5853C116.592 50.5133 116.487 50.4226 116.369 50.3144C116.227 50.1818 116.227 50.1818 116.072 50.0667C116.074 50.0427 116.076 50.0187 116.079 49.9939C116.053 49.9812 116.027 49.9686 116 49.9555C115.91 49.9067 115.839 49.8557 115.761 49.7901C115.734 49.768 115.708 49.7458 115.681 49.723C115.512 49.5793 115.344 49.435 115.176 49.2899C115.027 49.1613 114.876 49.0349 114.723 48.9108C114.508 48.7352 114.299 48.5524 114.091 48.3689C113.731 48.0532 113.363 47.7485 112.981 47.4611C112.958 47.4414 112.936 47.4217 112.913 47.4013C112.916 47.3773 112.918 47.3533 112.921 47.3285C112.889 47.3161 112.858 47.3037 112.826 47.2909C112.707 47.2328 112.63 47.1716 112.533 47.0811C112.35 46.9132 112.159 46.7602 111.962 46.6087C111.905 46.564 111.848 46.5193 111.791 46.4746C111.723 46.4211 111.654 46.3676 111.586 46.3142C111.563 46.2963 111.541 46.2785 111.517 46.2601C110.946 45.8112 110.365 45.3754 109.77 44.9581C109.721 44.9232 109.671 44.8882 109.622 44.8532C109.572 44.8178 109.522 44.7824 109.471 44.747C109.448 44.7303 109.424 44.7137 109.4 44.6965C109.306 44.6307 109.219 44.5724 109.114 44.5256C109.116 44.5015 109.119 44.4775 109.121 44.4527C109.095 44.4458 109.069 44.4389 109.042 44.4318C108.942 44.398 108.87 44.3572 108.782 44.2982C108.752 44.2782 108.723 44.2583 108.692 44.2377C108.66 44.2165 108.629 44.1953 108.597 44.1734C108.324 43.9916 108.051 43.818 107.765 43.6569C107.726 43.6345 107.688 43.6122 107.648 43.5892C106.46 42.9055 105.202 42.3393 103.887 41.9502C103.863 41.9428 103.839 41.9355 103.814 41.9279C102.059 41.3947 100.11 41.2771 98.2983 41.5456C98.2266 41.5542 98.155 41.5628 98.0834 41.5714C97.6515 41.6246 97.2269 41.7127 96.8014 41.8024C96.7554 41.812 96.7094 41.8216 96.6621 41.8315C96.4442 41.8788 96.2334 41.9396 96.0209 42.0068C95.8732 42.0502 95.7243 42.0852 95.5745 42.1203C95.3474 42.1742 95.1339 42.2413 94.9173 42.3292C94.7698 42.3864 94.6202 42.4342 94.4696 42.4824C93.9342 42.6562 93.4189 42.88 92.905 43.1085C92.7845 43.162 92.6632 43.2135 92.5416 43.2644C92.3706 43.3359 92.2046 43.4151 92.0391 43.4984C91.9588 43.531 91.9588 43.531 91.8495 43.5202C91.8472 43.5442 91.8448 43.5682 91.8423 43.593C91.7414 43.6384 91.6404 43.6836 91.5393 43.7286C91.5105 43.7415 91.4818 43.7545 91.4522 43.7678C91.4247 43.78 91.3971 43.7923 91.3688 43.8048C91.3434 43.8162 91.318 43.8276 91.2918 43.8393C91.2271 43.8633 91.2271 43.8633 91.1542 43.8561C91.1518 43.8801 91.1495 43.9041 91.147 43.9289C91.0825 43.9699 91.0825 43.9699 90.9987 44.0108C90.9713 44.0245 90.9439 44.0382 90.9157 44.0523C90.8376 44.0822 90.8376 44.0822 90.7283 44.0715C90.7259 44.0955 90.7235 44.1195 90.7211 44.1443C90.6422 44.191 90.6422 44.191 90.5343 44.2431C90.4951 44.2623 90.4559 44.2816 90.4155 44.3015C90.3559 44.3303 90.3559 44.3303 90.2952 44.3597C89.8587 44.5729 89.44 44.8164 89.0195 45.0591C88.9892 45.0765 88.9589 45.0938 88.9277 45.1118C88.8693 45.1453 88.8109 45.1791 88.7526 45.213C88.5525 45.3277 88.5525 45.3277 88.4714 45.3197C88.469 45.3438 88.4667 45.3678 88.4642 45.3926C88.4149 45.3998 88.3657 45.4071 88.3149 45.4146C88.3125 45.4386 88.3101 45.4627 88.3077 45.4874C88.2361 45.5319 88.2361 45.5319 88.1423 45.5791C88.0501 45.626 87.9605 45.6721 87.873 45.7274C87.8017 45.7685 87.8017 45.7685 87.7289 45.7613C87.7265 45.7853 87.7241 45.8094 87.7217 45.8341C87.6379 45.8872 87.5545 45.936 87.4678 45.9837C87.4177 46.0118 87.3676 46.0399 87.3175 46.068C87.2931 46.0817 87.2688 46.0953 87.2436 46.1093C87.1333 46.1721 87.026 46.2397 86.919 46.308C86.8626 46.3377 86.8626 46.3377 86.7898 46.3305C86.7874 46.3546 86.785 46.3786 86.7826 46.4034C86.7058 46.4544 86.7058 46.4544 86.5992 46.514C86.4318 46.6095 86.2666 46.7074 86.1033 46.8098C86.082 46.8232 86.0607 46.8365 86.0387 46.8503C85.9952 46.8775 85.9518 46.9048 85.9083 46.9321C85.8447 46.9719 85.781 47.0116 85.7172 47.0511C85.5002 47.1858 85.284 47.3216 85.0689 47.4593C84.8318 47.611 84.5929 47.7597 84.3533 47.9074C84.176 48.0166 84.0001 48.1275 83.8261 48.2418C83.7652 48.2753 83.7652 48.2753 83.6923 48.2681C83.6767 48.303 83.6612 48.3379 83.6451 48.3738C83.5563 48.4316 83.4686 48.4844 83.3762 48.5357C83.3513 48.55 83.3264 48.5643 83.3008 48.579C83.1956 48.6385 83.1047 48.6864 82.9862 48.7133C82.9838 48.7373 82.9815 48.7614 82.979 48.7861C82.8995 48.8395 82.8995 48.8395 82.7907 48.9009C82.7519 48.9229 82.7131 48.945 82.6731 48.9677C82.6323 48.9909 82.5915 49.0141 82.5495 49.0379C82.4349 49.1065 82.3204 49.1753 82.206 49.2442C82.12 49.2898 82.12 49.2898 82.0471 49.2826C82.0448 49.3066 82.0424 49.3306 82.0399 49.3554C81.9462 49.3826 81.9462 49.3826 81.8506 49.4103C81.8482 49.4343 81.8458 49.4583 81.8434 49.4831C81.7941 49.4904 81.7448 49.4977 81.6941 49.5051C81.6917 49.5292 81.6893 49.5532 81.6869 49.578C81.632 49.6092 81.5769 49.6401 81.5205 49.6685C81.4147 49.7219 81.3129 49.7821 81.2103 49.8412C81.1871 49.8545 81.164 49.8678 81.1402 49.8816C81.004 49.9601 80.8682 50.0391 80.7325 50.1186C80.441 50.2893 80.1495 50.4577 79.8501 50.6143C79.7285 50.6787 79.6087 50.7461 79.4887 50.8137C78.788 51.2042 78.788 51.2042 78.6582 51.1914C78.6559 51.2154 78.6535 51.2395 78.651 51.2642C78.6268 51.2739 78.6026 51.2836 78.5777 51.2936C78.3754 51.3768 78.18 51.4668 77.9864 51.5687C77.6334 51.7537 77.2666 51.9085 76.9014 52.0675C76.8191 52.1037 76.7373 52.1407 76.6559 52.1787C76.2741 52.3563 75.8795 52.4945 75.483 52.6352C75.3964 52.6663 75.3104 52.6987 75.2246 52.7319C74.952 52.8371 74.6729 52.9242 74.3949 53.0139C74.3567 53.0262 74.3185 53.0386 74.2792 53.0513C73.7666 53.2161 73.2547 53.3665 72.7298 53.4864C72.6301 53.5097 72.5313 53.536 72.4324 53.5626C72.2395 53.6127 72.0445 53.6473 71.848 53.6809C71.7485 53.6993 71.651 53.7198 71.5526 53.7428C70.4349 54 69.2535 54.081 68.1089 54.0851C68.079 54.0853 68.0491 54.0855 68.0182 54.0857C67.4436 54.0888 66.8778 54.0505 66.3063 53.9922C66.2635 53.9879 66.2206 53.9836 66.1765 53.9792C65.4527 53.9058 64.7417 53.8064 64.0321 53.6459C64.0068 53.6402 63.9814 53.6345 63.9553 53.6286C63.56 53.5391 63.167 53.441 62.775 53.3379C62.7369 53.328 62.7369 53.328 62.6981 53.3178C61.6342 53.0379 60.5985 52.6843 59.5628 52.3152C59.5336 52.3048 59.5044 52.2944 59.4744 52.2837C59.09 52.1466 58.7084 52.0034 58.3283 51.8547C58.2309 51.8166 58.1334 51.7789 58.0358 51.7412C57.5791 51.5646 57.1227 51.3879 56.6738 51.1921C56.4689 51.1031 56.2617 51.0218 56.053 50.9421C55.6595 50.7915 55.2707 50.6289 54.8826 50.465C54.5219 50.3134 54.1582 50.1694 53.7949 50.0243C53.7636 50.0118 53.7324 49.9994 53.7002 49.9865C53.4842 49.9003 53.2679 49.8151 53.0513 49.7303C53.0139 49.7155 52.9765 49.7008 52.9379 49.6856C51.1499 48.9832 49.3269 48.3782 47.4501 47.9638C47.4157 47.9561 47.3813 47.9485 47.3459 47.9406C46.8181 47.824 46.2848 47.7515 45.7486 47.6855C45.7215 47.6822 45.6944 47.6788 45.6664 47.6754C45.5119 47.6569 45.3573 47.6433 45.2021 47.6316C45.1549 47.6279 45.1549 47.6279 45.1068 47.6242C43.8754 47.5312 42.6545 47.5866 41.439 47.8043C41.3628 47.8179 41.2865 47.8313 41.2102 47.8446C40.6628 47.9414 40.1252 48.07 39.5894 48.2176C39.5381 48.2316 39.5381 48.2316 39.4858 48.2459C39.0599 48.3628 38.6388 48.4831 38.2239 48.6344C38.1446 48.662 38.0652 48.6894 37.9858 48.7167C37.9447 48.731 37.9036 48.7454 37.8613 48.7601C37.7687 48.7923 37.676 48.8241 37.5831 48.8556C37.1606 49.0006 36.7512 49.1718 36.3414 49.349C36.2406 49.3924 36.1396 49.4351 36.0385 49.4776C35.5545 49.6815 35.0801 49.9029 34.6071 50.1311C34.5514 50.1579 34.4957 50.1847 34.4399 50.2115C34.3899 50.2355 34.3399 50.2596 34.29 50.2839C34.1253 50.3629 34.1253 50.3629 34.0442 50.3549C34.0419 50.3789 34.0395 50.403 34.037 50.4277C33.981 50.453 33.9249 50.4781 33.8687 50.503C33.8374 50.517 33.8062 50.531 33.774 50.5454C33.6912 50.5775 33.6912 50.5775 33.6183 50.5703C33.6159 50.5943 33.6136 50.6183 33.6111 50.6431C33.5527 50.6787 33.5527 50.6787 33.472 50.716C33.4426 50.7298 33.4132 50.7436 33.383 50.7579C33.3514 50.7724 33.3199 50.7869 33.2874 50.8019C33.0526 50.9122 32.8237 51.0253 32.6016 51.1597C32.5243 51.199 32.463 51.2128 32.377 51.22C32.3746 51.2441 32.3722 51.2681 32.3698 51.2929C32.2872 51.3402 32.2872 51.3402 32.181 51.3892C32.146 51.4055 32.1111 51.4219 32.0752 51.4388C31.9839 51.4754 31.9839 51.4754 31.911 51.4682C31.9087 51.4923 31.9063 51.5163 31.9038 51.5411C31.8221 51.5876 31.741 51.6297 31.6565 51.6707C31.6063 51.6956 31.5561 51.7207 31.506 51.7457C31.4812 51.7581 31.4565 51.7705 31.431 51.7832C31.3078 51.8458 31.1884 51.9147 31.0684 51.9833C30.9628 52.0427 30.856 52.0993 30.7488 52.1557C30.5746 52.2478 30.4034 52.3438 30.233 52.4427C29.5422 52.8424 29.5422 52.8424 29.3047 52.9027C29.3023 52.9267 29.3 52.9507 29.2975 52.9755C29.2159 53.0232 29.2159 53.0232 29.1059 53.0761C28.9314 53.1612 28.7604 53.2503 28.5907 53.3446C28.5221 53.3771 28.5221 53.3771 28.4493 53.3699C28.4469 53.3939 28.4445 53.4179 28.4421 53.4427C28.3928 53.45 28.3435 53.4573 28.2927 53.4647C28.2904 53.4888 28.288 53.5128 28.2856 53.5376C28.2155 53.5758 28.2155 53.5758 28.119 53.6177C27.9695 53.6856 27.8283 53.7596 27.6874 53.844C27.4779 53.9692 27.263 54.0793 27.0442 54.1873C26.8432 54.288 26.6428 54.3898 26.4435 54.4938C26.0917 54.6773 25.7387 54.8568 25.3806 55.0277C25.2371 55.0964 25.0954 55.1665 24.9558 55.2431C24.8026 55.3267 24.6441 55.3935 24.4828 55.4598C24.3424 55.5195 24.2064 55.5868 24.0702 55.6553C23.9899 55.6879 23.9899 55.6879 23.8806 55.6771C23.8782 55.7011 23.8759 55.7252 23.8734 55.7499C23.8358 55.7637 23.8358 55.7637 23.7974 55.7778C23.5547 55.8684 23.3175 55.967 23.0806 56.0716C22.8274 56.1831 22.5724 56.2817 22.3108 56.3715C22.1313 56.4335 21.9567 56.503 21.7822 56.5778C21.5713 56.6676 21.3601 56.7378 21.1391 56.7984C20.9839 56.8411 20.8329 56.8904 20.6814 56.945C20.4691 57.0204 20.2556 57.0763 20.0365 57.1285C19.9169 57.1584 19.8004 57.1929 19.683 57.2303C19.4469 57.3038 19.2078 57.359 18.9661 57.4109C18.8872 57.428 18.8083 57.4457 18.7295 57.4635C16.9985 57.8482 15.2075 57.9555 13.4443 57.7777C13.3349 57.7667 13.2254 57.7561 13.1158 57.7455C12.5718 57.692 12.037 57.6196 11.5038 57.4963C11.4675 57.488 11.4313 57.4797 11.394 57.4711C10.1075 57.1706 8.82821 56.7186 7.6963 56.0287C7.65055 56.002 7.60475 55.9753 7.5589 55.9488C6.7541 55.4805 6.05663 54.9121 5.36629 54.2909C5.34123 54.2696 5.31617 54.2483 5.29034 54.2264C5.26114 54.1971 5.26114 54.1971 5.23135 54.1672C5.23372 54.1432 5.23609 54.1192 5.23854 54.0944C5.20737 54.0787 5.20737 54.0787 5.17556 54.0628C5.01518 53.9448 4.95665 53.7393 4.92455 53.5485C4.90637 53.1696 4.96894 52.791 5.17813 52.4703C5.2131 52.4157 5.2131 52.4157 5.24879 52.3601C5.48938 52.1263 5.77732 51.9405 6.12015 51.9272C6.20192 51.9301 6.28208 51.9369 6.36339 51.946C6.3921 51.9492 6.42081 51.9524 6.45039 51.9556C6.88335 52.0113 7.14405 52.2152 7.45491 52.5112C7.4886 52.5388 7.5223 52.5664 7.55701 52.5948C7.55464 52.6188 7.55227 52.6429 7.54982 52.6676C7.57407 52.679 7.59832 52.6903 7.62331 52.702C7.74211 52.7681 7.84399 52.8489 7.94883 52.9346C8.67224 53.5145 9.46647 53.9668 10.3314 54.3029C10.3536 54.3119 10.3759 54.321 10.3988 54.3303C11.2869 54.6913 12.2193 54.8936 13.1664 55.024C13.1984 55.0285 13.2304 55.0329 13.2633 55.0375C14.0779 55.1451 14.916 55.1514 15.7346 55.0937C15.7822 55.0905 15.8297 55.0873 15.8787 55.084C16.0289 55.0724 16.1786 55.058 16.3283 55.0419C16.3651 55.038 16.4018 55.0341 16.4396 55.0301C17.295 54.9371 18.1165 54.7738 18.9505 54.5653C19.0001 54.553 19.0001 54.553 19.0507 54.5405C19.3898 54.4563 19.7221 54.3658 20.0509 54.2466C20.1571 54.209 20.2635 54.1762 20.3715 54.1447C21.2698 53.8755 22.1432 53.5055 23.0036 53.1353C23.0705 53.1064 23.1376 53.0778 23.2046 53.0491C23.4252 52.9536 23.6389 52.8542 23.8471 52.7338C23.9168 52.7018 23.9168 52.7018 24.0261 52.7126C24.0285 52.6886 24.0308 52.6645 24.0333 52.6398C24.0575 52.6301 24.0817 52.6204 24.1066 52.6104C24.3887 52.4944 24.6589 52.3601 24.929 52.2192C24.9953 52.1848 25.0619 52.1508 25.1286 52.1169C25.473 51.9424 25.8137 51.7613 26.1541 51.5791C26.2345 51.5362 26.315 51.4934 26.3955 51.4507C26.6587 51.3113 26.9203 51.1694 27.1803 51.0241C27.4095 50.8965 27.6401 50.7716 27.8705 50.6462C28.0444 50.5514 28.2178 50.4559 28.3903 50.3586C28.5244 50.2829 28.6593 50.2093 28.7959 50.1379C28.971 50.0453 29.1429 49.9485 29.3141 49.8489C29.961 49.4738 29.961 49.4738 30.0834 49.4858C30.0858 49.4618 30.0882 49.4378 30.0906 49.413C30.1399 49.4057 30.1892 49.3984 30.2399 49.391C30.2423 49.3669 30.2447 49.3429 30.2471 49.3181C30.3205 49.2748 30.3205 49.2748 30.4241 49.2253C30.6003 49.139 30.7743 49.05 30.9472 48.9574C30.9716 48.9444 30.996 48.9313 31.0211 48.9179C31.1549 48.8464 31.2886 48.7746 31.4223 48.7028C31.7335 48.5357 32.046 48.3716 32.3612 48.2121C32.393 48.1958 32.4247 48.1796 32.4574 48.163C32.4868 48.1482 32.5161 48.1335 32.5463 48.1183C32.5723 48.1052 32.5983 48.092 32.6251 48.0785C32.6898 48.0514 32.6898 48.0514 32.7626 48.0586C32.765 48.0346 32.7674 48.0105 32.7698 47.9858C32.7954 47.9753 32.8209 47.9649 32.8472 47.9542C33.1108 47.8448 33.3647 47.7226 33.6181 47.5914C33.8721 47.4606 34.1264 47.3369 34.3898 47.2263C34.7407 47.0771 34.7407 47.0771 35.0861 46.9162C35.3585 46.7828 35.6385 46.676 35.9223 46.5698C36.0271 46.5305 36.1318 46.4905 36.2364 46.4504C36.2879 46.4306 36.3395 46.4109 36.391 46.3913C36.5071 46.3471 36.6229 46.3024 36.7384 46.2566C37.6225 45.9082 38.5527 45.6094 39.484 45.4171C39.589 45.3931 39.6901 45.3651 39.7932 45.3342C39.9783 45.2797 40.1632 45.2413 40.3531 45.2084C40.4035 45.1995 40.4035 45.1995 40.4549 45.1905C40.5621 45.1718 40.6693 45.1535 40.7765 45.1353C40.8297 45.1261 40.8297 45.1261 40.8839 45.1168C41.358 45.0357 41.8302 44.9743 42.3098 44.9379C42.3892 44.9314 42.4686 44.9241 42.5479 44.9164C42.8923 44.8831 43.2343 44.8679 43.5802 44.8648C43.663 44.864 43.7457 44.8628 43.8284 44.8615C44.4966 44.8528 45.1595 44.8982 45.824 44.9646C45.8578 44.968 45.8916 44.9714 45.9264 44.9748C47.6108 45.1441 49.2342 45.5361 50.8486 46.0368C50.9396 46.065 51.0307 46.093 51.1218 46.1211C51.4348 46.2179 51.7449 46.3193 52.0525 46.4322C52.1418 46.464 52.2312 46.4957 52.3205 46.5273C53.2887 46.8711 53.2887 46.8711 53.7473 47.0536C53.8096 47.0784 53.872 47.103 53.9343 47.1276C54.2343 47.2458 54.5333 47.3662 54.8321 47.4874C55.2334 47.6502 55.6347 47.8127 56.0382 47.9697C56.195 48.0311 56.3489 48.0969 56.5024 48.1662C56.6609 48.2368 56.8214 48.3027 56.9817 48.3691C57.0174 48.3839 57.0531 48.3987 57.0899 48.414C57.3203 48.5094 57.5514 48.6027 57.7841 48.6925C57.8719 48.728 57.9579 48.7653 58.0442 48.8042C58.2199 48.8833 58.3979 48.956 58.5767 49.0276C58.6303 49.049 58.6303 49.049 58.6849 49.0709C59.4538 49.3777 60.2232 49.6839 61.0086 49.946C61.124 49.9851 61.2381 50.0274 61.3525 50.0693C62.0302 50.3121 62.7183 50.5205 63.415 50.7009C63.5033 50.7239 63.5913 50.7478 63.6792 50.7721C65.9076 51.3825 68.5137 51.6731 70.7898 51.1502C70.8674 51.135 70.945 51.1201 71.0227 51.1055C71.0663 51.0973 71.1099 51.0891 71.1548 51.0806C71.2455 51.0635 71.3361 51.0465 71.4268 51.0296C71.6557 50.9862 71.8805 50.9392 72.1045 50.8755C72.1695 50.8577 72.2346 50.84 72.2996 50.8224C72.4002 50.795 72.5006 50.7674 72.601 50.7397C72.6524 50.7256 72.7039 50.7115 72.7553 50.6975C73.0995 50.6038 73.436 50.4979 73.7722 50.3781C73.8524 50.3508 73.9326 50.3237 74.0129 50.2967C74.4735 50.1405 74.9237 49.9744 75.3669 49.7741C75.5335 49.6998 75.7017 49.629 75.8696 49.5577C76.1049 49.4583 76.1049 49.4583 76.3365 49.3508C76.4155 49.3151 76.4155 49.3151 76.4883 49.3223C76.4907 49.2982 76.4931 49.2742 76.4955 49.2494C76.5228 49.2383 76.5502 49.2272 76.5783 49.2158C76.7672 49.1377 76.9472 49.0576 77.1222 48.9522C77.4688 48.7571 77.4688 48.7571 77.6096 48.771C77.612 48.747 77.6143 48.7229 77.6168 48.6981C77.6896 48.6576 77.6896 48.6576 77.7883 48.6139C77.9575 48.5373 78.1201 48.4536 78.2821 48.363C78.3521 48.3294 78.3521 48.3294 78.425 48.3366C78.4274 48.3126 78.4297 48.2885 78.4322 48.2638C78.5067 48.2469 78.5812 48.2299 78.658 48.2125C78.6603 48.1885 78.6627 48.1644 78.6652 48.1397C78.7343 48.0998 78.7343 48.0998 78.8347 48.053C79.4473 47.7527 80.046 47.3895 80.6194 47.0204C80.6927 46.9791 80.6927 46.9791 80.7655 46.9863C80.7679 46.9622 80.7703 46.9382 80.7727 46.9134C80.8495 46.8624 80.8494 46.8624 80.9561 46.8028C81.1235 46.7073 81.2887 46.6094 81.452 46.507C81.4731 46.4938 81.4943 46.4805 81.5161 46.4669C81.5594 46.4398 81.6027 46.4126 81.6459 46.3855C81.7988 46.2896 81.952 46.1941 82.1053 46.0989C82.1771 46.0542 82.2488 46.0094 82.3203 45.9644C82.3483 45.9469 82.3763 45.9295 82.4052 45.9115C82.4288 45.8967 82.4524 45.8819 82.4767 45.8666C82.5344 45.837 82.5344 45.837 82.6073 45.8442C82.6228 45.8093 82.6384 45.7744 82.6545 45.7385C82.7505 45.6728 82.7505 45.6728 82.8676 45.6055C82.9062 45.583 82.9448 45.5605 82.9846 45.5373C83.084 45.4867 83.084 45.4867 83.1568 45.4939C83.1592 45.4698 83.1616 45.4458 83.164 45.421C83.2384 45.3709 83.3121 45.3249 83.3895 45.2801C83.4105 45.2676 83.4316 45.2552 83.4533 45.2423C83.5133 45.2069 83.5734 45.1716 83.6336 45.1364C83.6629 45.1176 83.6923 45.0989 83.7225 45.0795C83.7901 45.0415 83.7901 45.0415 83.863 45.0487C83.8653 45.0247 83.8677 45.0006 83.8702 44.9759C83.9462 44.9234 84.0214 44.8754 84.1008 44.8285C84.1226 44.8152 84.1443 44.8019 84.1667 44.7882C84.3301 44.6903 84.3301 44.6903 84.4126 44.6984C84.4149 44.6744 84.4173 44.6503 84.4197 44.6256C84.4776 44.5839 84.4776 44.5839 84.5521 44.5421C84.5888 44.5211 84.5888 44.5211 84.6262 44.4997C84.6927 44.4686 84.6927 44.4686 84.7656 44.4758C84.768 44.4518 84.7704 44.4278 84.7728 44.403C84.8307 44.3613 84.8307 44.3613 84.9052 44.3195C84.9418 44.2985 84.9418 44.2985 84.9792 44.2771C85.0458 44.2461 85.0458 44.2461 85.1187 44.2533C85.121 44.2292 85.1234 44.2052 85.1259 44.1804C85.1785 44.1511 85.2315 44.1223 85.2853 44.0951C85.4319 44.0177 85.5698 43.925 85.7094 43.8358C86.3115 43.4516 86.3115 43.4516 86.4108 43.4614C86.4132 43.4374 86.4156 43.4133 86.418 43.3886C86.4719 43.3579 86.5261 43.3277 86.5815 43.3C86.6555 43.2622 86.7262 43.2204 86.7975 43.1778C86.924 43.1075 86.924 43.1075 86.9968 43.1147C86.9992 43.0907 87.0016 43.0666 87.004 43.0419C87.0796 42.9947 87.1545 42.9521 87.2331 42.9105C87.2794 42.8855 87.3257 42.8605 87.372 42.8354C87.3952 42.823 87.4184 42.8105 87.4423 42.7976C87.5714 42.7275 87.698 42.653 87.825 42.5792C87.8995 42.5419 87.8995 42.5419 87.9724 42.549C87.9747 42.525 87.9771 42.501 87.9796 42.4762C88.0454 42.4353 88.0454 42.4353 88.1302 42.3945C88.1719 42.374 88.1719 42.374 88.2144 42.3531C88.289 42.3229 88.289 42.3229 88.3619 42.3301C88.3642 42.306 88.3666 42.282 88.369 42.2572C88.4424 42.2139 88.4424 42.2139 88.546 42.1644C88.7257 42.0765 88.9028 41.9853 89.0789 41.8906C89.4823 41.6746 89.8893 41.4671 90.3015 41.2686C90.4566 41.1926 90.6094 41.1125 90.7619 41.0316C90.8481 40.9941 90.8481 40.9941 90.9574 41.0049C90.9598 40.9809 90.9621 40.9568 90.9646 40.9321C91.0611 40.8807 91.0611 40.8807 91.1867 40.8253C91.2483 40.7978 91.2483 40.7978 91.3111 40.7697C91.3494 40.7534 91.3876 40.7371 91.4269 40.7203C91.4549 40.7082 91.4828 40.6962 91.5116 40.6838C91.5799 40.6618 91.5799 40.6618 91.6892 40.6726C91.6915 40.6486 91.6939 40.6245 91.6964 40.5998C91.721 40.5905 91.7457 40.5813 91.7711 40.5718C91.9806 40.4926 92.1886 40.411 92.3955 40.3253C93.1077 40.0314 93.8285 39.7637 94.572 39.5604C94.6818 39.5297 94.7911 39.4974 94.9004 39.4648C95.3993 39.3164 95.8983 39.1845 96.4081 39.0789C96.4349 39.0733 96.4618 39.0677 96.4895 39.0619C97.3473 38.8845 98.2186 38.7766 99.0923 38.7187C99.14 38.7155 99.1876 38.7123 99.2366 38.709C100.806 38.6181 102.493 38.8006 104.011 39.2042Z" fill="#0F748F" fill-opacity="0.2"/>
</svg>
